<svg id="svg" xmlns="http://www.w3.org/2000/svg" xmlns:xlink="http://www.w3.org/1999/xlink" width="400" height="285.17940717628704" viewBox="0, 0, 400,285.17940717628704"><g id="svgg"><path id="path0" d="M141.150 1.702 C 140.015 1.842,138.932 2.359,138.743 2.850 C 138.554 3.342,137.868 3.744,137.219 3.744 C 136.569 3.744,136.037 4.025,136.037 4.368 C 136.037 4.711,135.588 4.992,135.040 4.992 C 134.491 4.992,133.255 5.835,132.293 6.864 C 131.331 7.894,130.236 8.736,129.859 8.736 C 129.431 8.736,129.173 10.261,129.173 12.793 C 129.173 15.081,128.901 16.849,128.549 16.849 C 128.206 16.849,127.925 17.394,127.925 18.060 C 127.925 18.726,127.644 19.445,127.301 19.657 C 126.958 19.869,126.677 20.868,126.677 21.878 C 126.677 22.887,126.396 23.713,126.053 23.713 C 125.710 23.713,125.429 24.836,125.429 26.209 C 125.429 27.582,125.148 28.705,124.805 28.705 C 124.462 28.705,124.181 29.688,124.181 30.889 C 124.181 32.090,124.462 33.073,124.805 33.073 C 125.148 33.073,125.429 33.612,125.429 34.269 C 125.429 34.927,125.780 35.629,126.209 35.829 C 126.833 36.121,126.833 36.266,126.209 36.557 C 125.327 36.969,125.069 46.802,125.940 46.802 C 126.221 46.802,126.834 48.206,127.301 49.922 C 127.768 51.638,128.381 53.042,128.662 53.042 C 128.943 53.042,129.173 53.893,129.173 54.934 C 129.173 56.040,129.562 56.975,130.109 57.185 C 130.624 57.382,131.045 57.935,131.045 58.413 C 131.045 59.996,114.731 59.642,113.573 58.034 C 113.078 57.348,112.376 56.786,112.012 56.786 C 111.649 56.786,110.947 56.225,110.452 55.538 C 109.958 54.852,109.053 54.290,108.443 54.290 C 107.832 54.290,107.332 53.869,107.332 53.354 C 107.332 52.618,106.463 52.418,103.257 52.418 C 100.209 52.418,99.090 52.654,98.822 53.354 C 98.114 55.199,96.724 54.372,96.724 52.106 C 96.724 50.905,96.443 49.922,96.100 49.922 C 95.757 49.922,95.476 48.518,95.476 46.802 C 95.476 45.086,95.195 43.682,94.852 43.682 C 94.509 43.682,94.228 42.699,94.228 41.498 C 94.228 40.296,93.947 39.314,93.604 39.314 C 93.261 39.314,92.980 38.752,92.980 38.066 C 92.980 37.379,92.699 36.817,92.356 36.817 C 92.012 36.817,91.732 36.256,91.732 35.569 C 91.732 34.876,91.316 34.321,90.796 34.321 C 90.213 34.321,89.860 33.732,89.860 32.761 C 89.860 31.903,89.579 31.201,89.236 31.201 C 88.892 31.201,88.612 30.702,88.612 30.091 C 88.612 29.480,88.050 28.576,87.363 28.081 C 86.677 27.586,86.115 26.864,86.115 26.476 C 86.115 25.555,82.561 21.841,81.680 21.841 C 81.306 21.841,80.213 20.998,79.251 19.969 C 78.289 18.939,77.053 18.097,76.505 18.097 C 75.956 18.097,75.507 17.816,75.507 17.473 C 75.507 17.129,74.945 16.849,74.259 16.849 C 73.573 16.849,73.011 16.568,73.011 16.225 C 73.011 15.881,72.309 15.601,71.451 15.601 C 70.593 15.601,69.891 15.320,69.891 14.977 C 69.891 14.633,69.169 14.353,68.286 14.353 C 67.404 14.353,66.260 13.931,65.745 13.417 C 65.195 12.866,63.670 12.480,62.046 12.480 C 60.526 12.480,59.282 12.200,59.282 11.856 C 59.282 11.470,55.954 11.232,50.546 11.232 C 45.138 11.232,41.810 11.470,41.810 11.856 C 41.810 12.208,40.056 12.480,37.798 12.480 C 35.064 12.480,33.488 12.779,32.850 13.417 C 32.336 13.931,30.912 14.353,29.686 14.353 C 28.460 14.353,27.457 14.633,27.457 14.977 C 27.457 15.320,26.755 15.601,25.897 15.601 C 25.039 15.601,24.337 15.881,24.337 16.225 C 24.337 16.568,23.775 16.849,23.089 16.849 C 22.402 16.849,21.841 17.129,21.841 17.473 C 21.841 17.816,21.334 18.097,20.715 18.097 C 20.095 18.097,18.579 19.009,17.346 20.125 C 16.113 21.240,14.513 22.566,13.792 23.071 C 13.071 23.575,12.480 24.368,12.480 24.831 C 12.480 25.695,11.015 27.457,10.296 27.457 C 9.527 27.457,8.112 29.247,8.112 30.221 C 8.112 30.760,7.832 31.201,7.488 31.201 C 7.145 31.201,6.864 31.903,6.864 32.761 C 6.864 33.619,6.583 34.321,6.240 34.321 C 5.897 34.321,5.616 34.883,5.616 35.569 C 5.616 36.256,5.335 36.817,4.992 36.817 C 4.649 36.817,4.368 37.379,4.368 38.066 C 4.368 38.752,4.087 39.314,3.744 39.314 C 3.401 39.314,3.120 40.296,3.120 41.498 C 3.120 42.699,2.839 43.682,2.496 43.682 C 2.153 43.682,1.872 44.805,1.872 46.178 C 1.872 47.551,1.591 48.674,1.248 48.674 C 0.851 48.674,0.624 53.562,0.624 62.090 C 0.624 70.619,0.851 75.507,1.248 75.507 C 1.591 75.507,1.872 76.771,1.872 78.315 C 1.872 79.860,2.153 81.123,2.496 81.123 C 2.839 81.123,3.120 82.387,3.120 83.931 C 3.120 85.476,3.401 86.739,3.744 86.739 C 4.087 86.739,4.368 87.425,4.368 88.263 C 4.368 89.100,4.649 89.959,4.992 90.172 C 5.335 90.384,5.616 91.102,5.616 91.768 C 5.616 92.435,5.897 92.980,6.240 92.980 C 6.583 92.980,6.864 93.682,6.864 94.540 C 6.864 95.398,7.077 96.100,7.336 96.100 C 7.595 96.100,8.181 96.942,8.636 97.972 C 9.092 99.002,9.742 99.844,10.081 99.844 C 11.031 99.844,12.480 101.513,12.480 102.608 C 12.480 103.172,13.010 103.588,13.729 103.588 C 14.415 103.588,14.977 103.882,14.977 104.241 C 14.977 105.378,17.988 107.956,19.316 107.956 C 20.018 107.956,20.593 108.237,20.593 108.580 C 20.593 108.924,21.154 109.204,21.841 109.204 C 22.527 109.204,23.089 109.485,23.089 109.828 C 23.089 110.172,23.651 110.452,24.337 110.452 C 25.023 110.452,25.585 110.733,25.585 111.076 C 25.585 111.420,26.568 111.700,27.769 111.700 C 28.970 111.700,29.953 111.981,29.953 112.324 C 29.953 112.668,31.327 112.949,33.007 112.949 C 35.145 112.949,36.168 113.229,36.419 113.885 C 36.712 114.648,38.223 114.821,44.598 114.821 C 49.927 114.821,52.418 115.042,52.418 115.515 C 52.418 115.973,53.112 116.061,54.446 115.775 C 55.562 115.536,59.119 115.153,62.351 114.924 C 66.183 114.653,68.319 114.237,68.488 113.729 C 68.630 113.300,69.425 112.949,70.255 112.949 C 71.084 112.949,71.763 112.668,71.763 112.324 C 71.763 111.981,72.324 111.700,73.011 111.700 C 73.697 111.700,74.259 111.420,74.259 111.076 C 74.259 110.733,74.759 110.452,75.369 110.452 C 75.980 110.452,76.884 109.891,77.379 109.204 C 77.874 108.518,78.671 107.956,79.150 107.956 C 80.283 107.956,84.867 103.372,84.867 102.239 C 84.867 101.760,85.429 100.963,86.115 100.468 C 86.802 99.973,87.363 99.131,87.363 98.596 C 87.363 98.061,87.925 97.219,88.612 96.724 C 89.298 96.229,89.860 95.184,89.860 94.402 C 89.860 93.554,90.237 92.980,90.796 92.980 C 91.316 92.980,91.732 92.425,91.732 91.732 C 91.732 91.045,92.012 90.484,92.356 90.484 C 92.699 90.484,92.980 89.641,92.980 88.612 C 92.980 87.582,93.261 86.739,93.604 86.739 C 93.947 86.739,94.266 85.686,94.313 84.399 C 94.365 82.951,94.501 82.594,94.668 83.463 C 94.817 84.236,95.200 84.867,95.519 84.867 C 95.839 84.867,96.100 85.227,96.100 85.666 C 96.100 86.105,96.661 86.869,97.348 87.363 C 98.034 87.858,98.596 88.763,98.596 89.373 C 98.596 89.984,98.897 90.484,99.265 90.484 C 100.259 90.484,101.716 92.126,101.716 93.247 C 101.716 93.786,101.997 94.228,102.340 94.228 C 102.683 94.228,102.964 94.587,102.964 95.026 C 102.964 95.465,103.526 96.229,104.212 96.724 C 104.899 97.219,105.460 98.061,105.460 98.596 C 105.460 99.131,106.022 99.973,106.708 100.468 C 107.395 100.963,107.956 101.765,107.956 102.250 C 107.956 102.736,108.658 103.784,109.516 104.579 C 110.374 105.374,111.076 106.347,111.076 106.740 C 111.076 107.134,111.919 108.243,112.949 109.204 C 113.978 110.166,114.821 111.282,114.821 111.683 C 114.821 112.085,115.172 112.768,115.601 113.202 C 116.030 113.636,116.939 114.739,117.621 115.654 C 118.303 116.568,119.103 117.317,119.399 117.317 C 119.694 117.317,120.723 118.159,121.685 119.189 C 122.647 120.218,123.883 121.061,124.431 121.061 C 124.980 121.061,125.429 121.342,125.429 121.685 C 125.429 122.028,125.991 122.309,126.677 122.309 C 127.363 122.309,127.925 122.590,127.925 122.933 C 127.925 123.276,128.908 123.557,130.109 123.557 C 131.635 123.557,132.293 123.839,132.293 124.493 C 132.293 125.117,132.917 125.429,134.165 125.429 C 135.195 125.429,136.037 125.710,136.037 126.053 C 136.037 126.396,136.509 126.677,137.085 126.677 C 138.866 126.677,142.538 128.169,143.599 129.323 C 144.154 129.927,144.806 130.421,145.048 130.421 C 145.824 130.421,147.180 132.082,148.553 134.717 C 149.290 136.130,150.144 137.285,150.453 137.285 C 150.762 137.285,151.014 137.847,151.014 138.534 C 151.014 139.220,151.295 139.782,151.638 139.782 C 151.981 139.782,152.262 140.281,152.262 140.892 C 152.262 141.503,152.824 142.407,153.510 142.902 C 154.197 143.396,154.758 144.057,154.758 144.370 C 154.758 144.683,155.363 145.464,156.102 146.105 C 157.423 147.251,157.307 147.270,148.925 147.270 C 143.662 147.270,140.406 147.031,140.406 146.646 C 140.406 146.303,139.563 146.022,138.534 146.022 C 137.504 146.022,136.661 146.303,136.661 146.646 C 136.661 147.016,134.373 147.270,131.045 147.270 C 127.717 147.270,125.429 147.524,125.429 147.894 C 125.429 148.246,123.661 148.518,121.373 148.518 C 119.085 148.518,117.317 148.790,117.317 149.142 C 117.317 149.485,115.913 149.766,114.197 149.766 C 112.480 149.766,111.076 150.047,111.076 150.390 C 111.076 150.733,110.374 151.014,109.516 151.014 C 108.658 151.014,107.956 151.295,107.956 151.638 C 107.956 151.981,107.526 152.262,107.001 152.262 C 106.475 152.262,105.883 152.683,105.686 153.198 C 105.488 153.713,104.908 154.134,104.396 154.134 C 103.884 154.134,102.678 154.977,101.716 156.006 C 100.754 157.036,99.779 157.878,99.549 157.878 C 98.425 157.878,96.100 161.659,96.100 163.486 C 96.100 164.177,95.819 164.743,95.476 164.743 C 95.115 164.743,94.852 166.719,94.852 169.423 C 94.852 172.127,95.115 174.103,95.476 174.103 C 95.819 174.103,96.100 175.210,96.100 176.562 C 96.100 177.915,96.381 179.195,96.724 179.407 C 97.067 179.619,97.348 180.338,97.348 181.004 C 97.348 181.670,97.629 182.215,97.972 182.215 C 98.315 182.215,98.596 182.786,98.596 183.483 C 98.596 184.180,99.017 184.912,99.532 185.110 C 100.047 185.307,100.468 185.939,100.468 186.512 C 100.468 187.086,101.030 187.961,101.716 188.456 C 102.402 188.950,102.964 189.793,102.964 190.328 C 102.964 190.863,103.526 191.705,104.212 192.200 C 104.899 192.694,105.460 193.458,105.460 193.898 C 105.460 194.337,105.694 194.696,105.979 194.696 C 106.264 194.696,106.896 195.468,107.383 196.412 C 108.361 198.307,109.523 199.688,110.140 199.688 C 110.910 199.688,112.324 201.478,112.324 202.452 C 112.324 202.991,112.605 203.432,112.949 203.432 C 113.292 203.432,113.573 203.741,113.573 204.118 C 113.573 204.495,114.415 205.590,115.445 206.552 C 116.474 207.514,117.317 208.630,117.317 209.031 C 117.317 209.807,118.827 211.544,119.501 211.544 C 120.005 211.544,121.685 213.201,121.685 213.698 C 121.685 213.901,123.204 215.587,125.062 217.445 C 126.919 219.302,128.623 221.402,128.848 222.111 C 129.073 222.821,129.660 223.401,130.151 223.401 C 130.643 223.401,131.045 223.822,131.045 224.337 C 131.045 224.852,131.326 225.273,131.669 225.273 C 132.012 225.273,132.293 225.773,132.293 226.383 C 132.293 226.994,132.855 227.898,133.541 228.393 C 134.228 228.888,134.789 229.730,134.789 230.265 C 134.789 230.800,135.351 231.643,136.037 232.137 C 136.724 232.632,137.285 233.574,137.285 234.232 C 137.285 234.889,137.988 236.077,138.846 236.872 C 140.533 238.436,140.774 239.002,139.753 239.002 C 138.906 239.002,136.037 241.870,136.037 242.717 C 136.037 243.076,135.588 243.370,135.040 243.370 C 134.491 243.370,133.255 244.212,132.293 245.242 C 131.331 246.271,130.349 247.114,130.109 247.114 C 129.870 247.114,128.922 247.886,128.003 248.830 C 126.052 250.833,123.964 252.106,122.629 252.106 C 122.110 252.106,121.685 252.527,121.685 253.042 C 121.685 253.696,121.026 253.978,119.501 253.978 C 118.300 253.978,117.317 254.259,117.317 254.602 C 117.317 254.945,116.474 255.226,115.445 255.226 C 114.415 255.226,113.573 255.507,113.573 255.850 C 113.573 256.193,112.800 256.475,111.856 256.475 C 107.111 256.477,104.782 263.096,108.424 266.229 C 109.368 267.041,110.632 267.706,111.232 267.706 C 111.833 267.706,112.324 267.988,112.324 268.331 C 112.324 268.674,113.167 268.955,114.197 268.955 C 115.226 268.955,116.069 269.236,116.069 269.579 C 116.069 269.973,120.541 270.203,128.237 270.203 C 135.933 270.203,140.406 269.973,140.406 269.579 C 140.406 269.236,141.388 268.955,142.590 268.955 C 143.791 268.955,144.774 268.674,144.774 268.331 C 144.774 267.984,146.438 267.707,148.518 267.707 C 150.598 267.707,152.262 267.984,152.262 268.331 C 152.262 269.152,161.427 269.152,161.934 268.331 C 162.147 267.988,164.253 267.707,166.615 267.707 C 168.977 267.707,171.083 267.426,171.295 267.083 C 171.507 266.739,172.506 266.459,173.516 266.459 C 174.525 266.459,175.351 266.197,175.351 265.877 C 175.351 265.557,175.913 265.116,176.599 264.899 C 177.971 264.463,178.567 255.226,177.223 255.226 C 176.880 255.226,176.599 253.682,176.599 251.794 C 176.599 249.906,176.318 248.362,175.975 248.362 C 175.632 248.362,175.351 247.239,175.351 245.866 C 175.351 244.493,175.070 243.370,174.727 243.370 C 174.384 243.370,174.103 242.387,174.103 241.186 C 174.103 239.984,173.822 239.002,173.479 239.002 C 173.136 239.002,172.855 238.541,172.855 237.978 C 172.855 235.152,165.588 234.092,163.412 236.601 C 162.771 237.340,162.246 237.621,162.246 237.225 C 162.246 236.829,161.825 236.505,161.310 236.505 C 160.790 236.505,160.374 235.951,160.374 235.257 C 160.374 234.571,160.094 234.009,159.750 234.009 C 159.407 234.009,159.126 233.448,159.126 232.761 C 159.126 232.075,158.846 231.513,158.502 231.513 C 158.159 231.513,157.878 231.092,157.878 230.577 C 157.878 230.062,157.598 229.641,157.254 229.641 C 156.911 229.641,156.630 229.080,156.630 228.393 C 156.630 227.707,156.384 227.145,156.082 227.145 C 155.780 227.145,155.185 226.303,154.758 225.273 C 154.332 224.243,153.736 223.401,153.434 223.401 C 153.133 223.401,152.877 222.910,152.866 222.309 C 152.842 220.960,151.436 219.033,150.477 219.033 C 150.086 219.033,149.766 218.471,149.766 217.785 C 149.766 217.098,149.485 216.537,149.142 216.537 C 148.781 216.537,148.518 214.561,148.518 211.856 C 148.518 209.152,148.254 207.176,147.894 207.176 C 147.551 207.176,147.270 205.632,147.270 203.744 C 147.270 201.856,146.989 200.312,146.646 200.312 C 146.303 200.312,146.022 199.891,146.022 199.376 C 146.022 198.752,146.646 198.440,147.894 198.440 C 148.924 198.440,149.766 198.721,149.766 199.064 C 149.766 199.407,151.310 199.688,153.198 199.688 C 155.086 199.688,156.630 199.969,156.630 200.312 C 156.630 200.655,157.754 200.936,159.126 200.936 C 160.499 200.936,161.622 201.217,161.622 201.560 C 161.622 201.903,162.746 202.184,164.119 202.184 C 165.491 202.184,166.615 202.465,166.615 202.808 C 166.615 203.197,170.255 203.432,176.287 203.432 C 182.319 203.432,185.959 203.197,185.959 202.808 C 185.959 202.465,187.504 202.184,189.392 202.184 C 191.279 202.184,192.824 201.903,192.824 201.560 C 192.824 200.569,199.642 200.801,200.669 201.828 C 201.159 202.318,201.560 203.862,201.560 205.260 C 201.560 206.657,201.841 207.800,202.184 207.800 C 202.527 207.800,202.808 208.362,202.808 209.048 C 202.808 209.735,203.089 210.296,203.432 210.296 C 203.775 210.296,204.056 210.858,204.056 211.544 C 204.056 212.231,204.337 212.793,204.680 212.793 C 205.023 212.793,205.304 213.299,205.304 213.919 C 205.304 214.991,209.074 219.657,209.941 219.657 C 210.830 219.657,213.417 222.784,213.417 223.859 C 213.417 224.485,213.978 225.402,214.665 225.897 C 215.397 226.425,215.913 227.512,215.913 228.531 C 215.913 229.485,216.125 230.265,216.385 230.265 C 217.167 230.265,218.409 235.046,218.409 238.056 C 218.409 240.145,218.651 240.874,219.345 240.874 C 219.969 240.874,220.281 241.498,220.281 242.746 C 220.281 243.994,219.969 244.618,219.345 244.618 C 218.721 244.618,218.409 245.242,218.409 246.490 C 218.409 247.520,218.128 248.362,217.785 248.362 C 217.441 248.362,217.161 249.906,217.161 251.794 C 217.161 253.682,216.880 255.226,216.537 255.226 C 216.193 255.226,215.913 256.052,215.913 257.061 C 215.913 258.071,215.632 259.070,215.289 259.282 C 214.945 259.494,214.665 260.494,214.665 261.503 C 214.665 262.513,214.384 263.339,214.041 263.339 C 213.697 263.339,213.417 263.773,213.417 264.303 C 213.417 265.215,210.767 268.331,209.992 268.331 C 209.359 268.331,205.304 272.631,205.304 273.302 C 205.304 273.657,205.023 273.947,204.680 273.947 C 204.333 273.947,204.056 275.626,204.056 277.736 C 204.056 281.953,204.879 283.307,207.444 283.307 C 208.326 283.307,209.048 283.588,209.048 283.931 C 209.048 284.328,213.833 284.555,222.153 284.555 C 230.473 284.555,235.257 284.328,235.257 283.931 C 235.257 283.588,235.757 283.307,236.368 283.307 C 236.978 283.307,237.883 282.746,238.378 282.059 C 238.872 281.373,239.777 280.811,240.387 280.811 C 240.998 280.811,241.498 280.530,241.498 280.187 C 241.498 279.844,242.069 279.563,242.767 279.563 C 245.501 279.563,248.362 275.586,248.362 271.784 C 248.362 269.885,248.081 268.331,247.738 268.331 C 247.395 268.331,247.114 267.207,247.114 265.835 C 247.114 264.462,246.833 263.339,246.490 263.339 C 246.134 263.339,245.866 261.479,245.866 259.007 C 245.866 256.625,245.585 254.502,245.242 254.290 C 244.899 254.078,244.618 252.657,244.618 251.133 C 244.618 249.609,244.337 248.362,243.994 248.362 C 243.651 248.362,243.370 247.800,243.370 247.114 C 243.370 246.139,242.954 245.866,241.469 245.866 C 238.218 245.866,236.505 243.508,236.505 239.030 C 236.505 236.931,236.229 235.257,235.881 235.257 C 235.499 235.257,235.257 232.241,235.257 227.457 C 235.257 222.673,235.499 219.657,235.881 219.657 C 236.261 219.657,236.505 216.849,236.505 212.480 C 236.505 208.112,236.750 205.304,237.129 205.304 C 237.473 205.304,237.754 205.011,237.754 204.652 C 237.754 204.293,238.443 203.310,239.285 202.468 C 240.128 201.625,241.110 200.936,241.469 200.936 C 241.828 200.936,242.122 200.655,242.122 200.312 C 242.122 199.969,242.498 199.688,242.958 199.688 C 243.419 199.688,245.174 198.430,246.859 196.893 C 248.543 195.356,250.544 193.530,251.304 192.837 C 252.064 192.143,252.957 191.576,253.290 191.576 C 253.622 191.576,254.075 191.005,254.297 190.308 C 254.518 189.610,255.379 188.359,256.211 187.528 C 257.042 186.696,257.722 185.442,257.722 184.740 C 257.722 184.038,258.003 183.463,258.346 183.463 C 258.690 183.463,258.970 181.919,258.970 180.031 C 258.970 178.144,259.251 176.599,259.594 176.599 C 259.946 176.599,260.218 174.831,260.218 172.543 C 260.218 170.255,259.946 168.487,259.594 168.487 C 259.251 168.487,258.970 167.363,258.970 165.991 C 258.970 164.618,258.690 163.495,258.346 163.495 C 258.003 163.495,257.722 162.793,257.722 161.934 C 257.722 161.076,257.441 160.374,257.098 160.374 C 256.755 160.374,256.474 159.946,256.474 159.422 C 256.474 157.878,245.990 147.270,244.464 147.270 C 244.014 147.270,243.240 146.708,242.746 146.022 C 242.251 145.335,241.607 144.774,241.315 144.774 C 240.701 144.774,239.002 143.177,239.002 142.600 C 239.002 142.385,237.317 140.555,235.257 138.534 C 233.198 136.512,231.513 134.413,231.513 133.868 C 231.513 133.324,231.092 132.717,230.577 132.519 C 230.062 132.321,229.641 131.628,229.641 130.978 C 229.641 130.329,229.360 129.797,229.017 129.797 C 228.674 129.797,228.393 128.955,228.393 127.925 C 228.393 126.895,228.112 126.053,227.769 126.053 C 227.426 126.053,227.145 124.930,227.145 123.557 C 227.145 122.184,227.426 121.061,227.769 121.061 C 228.112 121.061,228.393 121.342,228.393 121.685 C 228.393 122.028,228.827 122.309,229.358 122.309 C 229.888 122.309,230.998 122.941,231.824 123.713 C 234.343 126.069,235.176 126.677,235.881 126.677 C 236.253 126.677,237.160 127.239,237.897 127.925 C 238.634 128.612,239.746 129.173,240.367 129.173 C 240.989 129.173,241.498 129.454,241.498 129.797 C 241.498 130.140,242.059 130.421,242.746 130.421 C 243.432 130.421,243.994 130.702,243.994 131.045 C 243.994 131.388,244.555 131.669,245.242 131.669 C 245.928 131.669,246.490 131.950,246.490 132.293 C 246.490 132.637,247.021 132.917,247.671 132.917 C 248.321 132.917,249.014 133.339,249.212 133.853 C 249.409 134.368,250.141 134.789,250.838 134.789 C 251.536 134.789,252.106 135.070,252.106 135.413 C 252.106 135.757,252.668 136.037,253.354 136.037 C 254.041 136.037,254.602 136.318,254.602 136.661 C 254.602 137.005,255.866 137.285,257.410 137.285 C 258.955 137.285,260.218 137.566,260.218 137.910 C 260.218 138.253,260.920 138.534,261.778 138.534 C 262.637 138.534,263.339 138.253,263.339 137.910 C 263.339 137.566,264.341 137.285,265.567 137.285 C 268.454 137.285,269.579 136.091,269.579 133.029 C 269.579 131.489,269.907 130.429,270.448 130.221 C 272.716 129.351,272.730 106.084,270.464 106.084 C 269.977 106.084,269.579 105.523,269.579 104.836 C 269.579 104.150,269.298 103.588,268.955 103.588 C 268.612 103.588,268.331 102.886,268.331 102.028 C 268.331 101.170,268.050 100.468,267.707 100.468 C 267.363 100.468,267.083 99.906,267.083 99.220 C 267.083 98.534,266.802 97.972,266.459 97.972 C 266.115 97.972,265.835 97.286,265.835 96.449 C 265.835 95.611,265.554 94.752,265.211 94.540 C 264.867 94.328,264.587 93.469,264.587 92.631 C 264.587 91.793,264.306 91.108,263.963 91.108 C 263.619 91.108,263.339 89.984,263.339 88.612 C 263.339 87.239,263.058 86.115,262.715 86.115 C 261.571 86.115,262.071 84.206,263.622 82.655 C 264.465 81.813,265.588 81.123,266.118 81.123 C 266.667 81.123,267.083 80.585,267.083 79.875 C 267.083 79.189,267.363 78.627,267.707 78.627 C 268.050 78.627,268.331 78.066,268.331 77.379 C 268.331 76.693,268.612 76.131,268.955 76.131 C 269.298 76.131,269.579 75.429,269.579 74.571 C 269.579 73.600,269.932 73.011,270.515 73.011 C 271.035 73.011,271.451 72.456,271.451 71.763 C 271.451 70.848,271.867 70.515,273.011 70.515 C 274.566 70.515,274.571 70.536,274.571 76.443 C 274.571 79.979,274.823 82.371,275.195 82.371 C 275.562 82.371,275.819 84.555,275.819 87.676 C 275.819 90.796,276.076 92.980,276.443 92.980 C 276.786 92.980,277.067 93.963,277.067 95.164 C 277.067 96.365,277.348 97.348,277.691 97.348 C 278.034 97.348,278.315 97.910,278.315 98.596 C 278.315 99.289,278.731 99.844,279.251 99.844 C 279.875 99.844,280.187 100.468,280.187 101.716 C 280.187 102.746,280.468 103.588,280.811 103.588 C 281.154 103.588,281.435 104.290,281.435 105.148 C 281.435 106.006,281.716 106.708,282.059 106.708 C 282.402 106.708,282.683 107.208,282.683 107.819 C 282.683 108.429,283.245 109.334,283.931 109.828 C 284.618 110.323,285.179 111.228,285.179 111.838 C 285.179 112.449,285.460 112.949,285.803 112.949 C 286.147 112.949,286.427 113.370,286.427 113.885 C 286.427 114.399,286.708 114.821,287.051 114.821 C 287.395 114.821,287.676 115.154,287.676 115.562 C 287.676 116.610,295.013 123.557,296.120 123.557 C 296.624 123.557,297.036 123.978,297.036 124.493 C 297.036 125.075,297.625 125.429,298.596 125.429 C 299.454 125.429,300.156 125.710,300.156 126.053 C 300.156 126.396,300.718 126.677,301.404 126.677 C 302.090 126.677,302.652 126.958,302.652 127.301 C 302.652 127.644,303.495 127.925,304.524 127.925 C 305.554 127.925,306.396 128.206,306.396 128.549 C 306.396 128.935,309.724 129.173,315.133 129.173 C 320.541 129.173,323.869 129.411,323.869 129.797 C 323.869 130.185,327.301 130.421,332.917 130.421 C 338.534 130.421,341.966 130.185,341.966 129.797 C 341.966 129.441,343.825 129.173,346.297 129.173 C 348.679 129.173,350.802 128.892,351.014 128.549 C 351.226 128.206,351.945 127.925,352.611 127.925 C 353.277 127.925,353.822 127.644,353.822 127.301 C 353.822 126.958,354.263 126.677,354.803 126.677 C 355.924 126.677,357.566 125.220,357.566 124.226 C 357.566 123.858,358.128 123.557,358.814 123.557 C 359.501 123.557,360.062 123.276,360.062 122.933 C 360.062 122.590,360.353 122.309,360.707 122.309 C 361.546 122.309,365.679 118.176,365.679 117.337 C 365.679 116.983,365.959 116.693,366.303 116.693 C 366.646 116.693,366.927 116.271,366.927 115.757 C 366.927 115.242,367.207 114.821,367.551 114.821 C 367.894 114.821,368.175 114.399,368.175 113.885 C 368.175 113.370,368.456 112.949,368.799 112.949 C 369.142 112.949,369.423 112.387,369.423 111.700 C 369.423 111.014,369.774 110.452,370.204 110.452 C 371.198 110.452,373.795 105.598,373.793 103.744 C 373.792 102.972,374.072 102.340,374.415 102.340 C 374.758 102.340,375.039 101.795,375.039 101.129 C 375.039 100.463,375.320 99.744,375.663 99.532 C 376.006 99.320,376.287 98.461,376.287 97.623 C 376.287 96.785,376.568 96.100,376.911 96.100 C 377.254 96.100,377.535 95.117,377.535 93.916 C 377.535 92.715,377.816 91.732,378.159 91.732 C 378.502 91.732,378.783 90.187,378.783 88.300 C 378.783 86.412,379.064 84.867,379.407 84.867 C 379.750 84.867,380.031 83.463,380.031 81.747 C 380.031 78.696,380.073 78.627,381.903 78.627 C 382.933 78.627,383.775 78.908,383.775 79.251 C 383.775 80.302,398.039 80.054,399.109 78.984 C 401.473 76.620,399.945 66.147,397.236 66.147 C 396.697 66.147,396.256 65.866,396.256 65.523 C 396.256 65.162,394.280 64.899,391.576 64.899 C 388.872 64.899,386.895 64.635,386.895 64.275 C 386.895 63.931,385.351 63.651,383.463 63.651 L 380.031 63.651 380.031 56.162 C 380.031 51.586,379.789 48.674,379.407 48.674 C 379.060 48.674,378.783 47.010,378.783 44.930 C 378.783 42.850,378.506 41.186,378.159 41.186 C 377.816 41.186,377.535 40.203,377.535 39.002 C 377.535 37.800,377.254 36.817,376.911 36.817 C 376.568 36.817,376.287 35.835,376.287 34.633 C 376.287 33.432,376.006 32.449,375.663 32.449 C 375.320 32.449,375.039 31.888,375.039 31.201 C 375.039 30.515,374.758 29.953,374.415 29.953 C 374.072 29.953,373.791 29.392,373.791 28.705 C 373.791 28.019,373.510 27.457,373.167 27.457 C 372.824 27.457,372.543 26.895,372.543 26.209 C 372.543 25.523,372.281 24.961,371.961 24.961 C 371.641 24.961,371.180 24.335,370.937 23.569 C 370.694 22.804,369.763 21.462,368.867 20.586 C 367.972 19.711,366.939 18.461,366.573 17.807 C 366.207 17.154,365.378 16.320,364.732 15.954 C 364.086 15.588,362.667 14.376,361.580 13.261 C 360.493 12.145,359.145 11.232,358.585 11.232 C 358.025 11.232,357.566 10.952,357.566 10.608 C 357.566 10.265,357.005 9.984,356.318 9.984 C 355.632 9.984,355.070 9.704,355.070 9.360 C 355.070 9.017,354.087 8.736,352.886 8.736 C 351.685 8.736,350.702 8.456,350.702 8.112 C 350.702 7.769,349.298 7.488,347.582 7.488 C 345.866 7.488,344.462 7.207,344.462 6.864 C 344.462 6.464,338.430 6.240,327.613 6.240 C 316.797 6.240,310.764 6.464,310.764 6.864 C 310.764 7.207,309.377 7.488,307.681 7.488 C 305.985 7.488,304.424 7.769,304.212 8.112 C 304.000 8.456,303.281 8.736,302.615 8.736 C 301.949 8.736,301.404 9.017,301.404 9.360 C 301.404 9.704,300.913 9.985,300.312 9.985 C 299.237 9.986,295.788 12.549,295.788 13.347 C 295.788 13.572,294.314 15.277,292.512 17.137 C 288.361 21.420,287.676 22.260,287.676 23.063 C 287.676 23.420,287.395 23.713,287.051 23.713 C 286.708 23.713,286.427 24.213,286.427 24.823 C 286.427 25.434,285.866 26.338,285.179 26.833 C 284.493 27.328,283.931 28.232,283.931 28.843 C 283.931 29.454,283.651 29.953,283.307 29.953 C 282.964 29.953,282.683 30.498,282.683 31.164 C 282.683 31.831,282.402 32.549,282.059 32.761 C 281.716 32.973,281.435 33.692,281.435 34.358 C 281.435 35.024,281.154 35.569,280.811 35.569 C 280.468 35.569,280.187 36.292,280.187 37.174 C 280.187 38.057,279.766 39.200,279.251 39.715 C 278.736 40.230,278.315 41.614,278.315 42.790 C 278.315 43.967,278.034 44.930,277.691 44.930 C 277.348 44.930,277.067 46.053,277.067 47.426 C 277.067 48.799,276.786 49.922,276.443 49.922 C 276.080 49.922,275.819 51.980,275.819 54.847 C 275.819 58.763,275.617 59.851,274.832 60.152 C 272.972 60.865,271.596 60.530,271.270 59.282 C 271.090 58.595,270.419 58.034,269.775 58.034 C 269.132 58.034,268.201 57.473,267.707 56.786 C 267.212 56.100,266.308 55.538,265.697 55.538 C 265.086 55.538,264.587 55.257,264.587 54.914 C 264.587 54.544,262.298 54.290,258.970 54.290 C 255.642 54.290,253.354 54.544,253.354 54.914 C 253.354 55.257,252.793 55.538,252.106 55.538 C 251.420 55.538,250.858 55.819,250.858 56.162 C 250.858 56.505,249.937 56.786,248.812 56.786 C 247.481 56.786,246.451 57.223,245.866 58.034 C 244.846 59.449,185.262 60.054,184.399 58.658 C 184.187 58.315,183.188 58.034,182.178 58.034 C 181.169 58.034,180.343 57.754,180.343 57.410 C 180.343 57.067,179.501 56.786,178.471 56.786 C 177.441 56.786,176.599 56.505,176.599 56.162 C 176.599 55.819,175.757 55.538,174.727 55.538 C 173.697 55.538,172.855 55.257,172.855 54.914 C 172.855 54.571,172.554 54.290,172.186 54.290 C 171.085 54.290,169.735 52.596,169.735 51.215 C 169.735 50.504,169.454 49.922,169.111 49.922 C 168.768 49.922,168.487 48.799,168.487 47.426 C 168.487 46.053,168.768 44.930,169.111 44.930 C 169.454 44.930,169.735 44.208,169.735 43.325 C 169.735 42.443,170.156 41.299,170.671 40.784 C 171.186 40.270,171.607 39.307,171.607 38.645 C 171.607 37.983,171.888 37.441,172.231 37.441 C 172.574 37.441,172.855 36.459,172.855 35.257 C 172.855 34.056,173.136 33.073,173.479 33.073 C 173.863 33.073,174.103 29.953,174.103 24.961 C 174.103 19.969,173.863 16.849,173.479 16.849 C 173.136 16.849,172.855 16.287,172.855 15.601 C 172.855 14.914,172.574 14.353,172.231 14.353 C 171.888 14.353,171.607 13.830,171.607 13.192 C 171.607 12.554,170.905 11.504,170.047 10.860 C 169.189 10.215,168.487 9.314,168.487 8.856 C 168.487 7.778,166.943 6.240,165.861 6.240 C 165.397 6.240,164.613 5.679,164.119 4.992 C 163.624 4.306,162.579 3.744,161.797 3.744 C 161.006 3.744,160.374 3.363,160.374 2.886 C 160.374 1.404,149.168 0.714,141.150 1.702 M140.406 67.439 C 140.406 68.706,138.618 69.891,136.706 69.891 C 135.652 69.891,134.789 70.172,134.789 70.515 C 134.789 70.858,134.431 71.139,133.992 71.139 C 132.963 71.139,131.045 73.377,131.045 74.578 C 131.045 75.089,130.624 75.507,130.109 75.507 C 129.485 75.507,129.173 76.131,129.173 77.379 C 129.173 78.409,128.892 79.251,128.549 79.251 C 128.206 79.251,127.925 80.796,127.925 82.683 C 127.925 84.571,127.644 86.115,127.301 86.115 C 126.958 86.115,126.677 86.537,126.677 87.051 C 126.677 87.566,126.958 87.988,127.301 87.988 C 127.644 87.988,127.925 88.981,127.925 90.196 L 127.925 92.404 126.559 91.132 C 125.808 90.432,124.825 89.860,124.375 89.860 C 123.925 89.860,123.557 89.579,123.557 89.236 C 123.557 88.892,123.136 88.612,122.621 88.612 C 122.106 88.612,121.685 88.331,121.685 87.988 C 121.685 87.644,121.273 87.363,120.769 87.363 C 119.785 87.363,108.580 76.421,108.580 75.460 C 108.580 75.143,108.861 74.883,109.204 74.883 C 109.548 74.883,109.828 74.462,109.828 73.947 C 109.828 73.432,110.129 73.011,110.497 73.011 C 111.360 73.011,112.542 71.817,113.558 69.917 C 115.236 66.782,115.064 66.819,128.081 66.794 C 136.444 66.778,140.406 66.986,140.406 67.439 M226.521 68.643 C 226.521 69.021,229.225 69.267,233.385 69.267 L 240.250 69.267 240.250 71.139 C 240.250 72.168,240.530 73.011,240.874 73.011 C 241.217 73.011,241.498 73.713,241.498 74.571 C 241.498 75.429,241.778 76.131,242.122 76.131 C 242.465 76.131,242.746 76.693,242.746 77.379 C 242.746 78.066,243.027 78.627,243.370 78.627 C 243.713 78.627,243.994 79.189,243.994 79.875 C 243.994 80.562,244.275 81.123,244.618 81.123 C 244.970 81.123,245.242 82.891,245.242 85.179 C 245.242 87.467,245.514 89.236,245.866 89.236 C 246.215 89.236,246.490 90.941,246.490 93.105 C 246.490 96.114,246.323 96.807,245.741 96.225 C 245.329 95.813,244.346 95.476,243.557 95.476 C 242.768 95.476,242.122 95.195,242.122 94.852 C 242.122 94.509,241.420 94.228,240.562 94.228 C 239.704 94.228,239.002 93.981,239.002 93.679 C 239.002 93.378,238.159 92.782,237.129 92.356 C 235.791 91.801,235.257 91.157,235.257 90.096 C 235.257 89.280,234.977 88.612,234.633 88.612 C 234.290 88.612,234.009 88.050,234.009 87.363 C 234.009 86.677,233.729 86.115,233.385 86.115 C 233.042 86.115,232.761 85.554,232.761 84.867 C 232.761 84.181,232.480 83.619,232.137 83.619 C 231.794 83.619,231.513 83.049,231.513 82.352 C 231.513 81.655,231.092 80.922,230.577 80.725 C 230.062 80.527,229.641 79.834,229.641 79.184 C 229.641 78.535,229.360 78.003,229.017 78.003 C 228.674 78.003,228.393 77.441,228.393 76.755 C 228.393 76.069,228.112 75.507,227.769 75.507 C 227.426 75.507,227.145 74.945,227.145 74.259 C 227.145 73.573,226.864 73.011,226.521 73.011 C 226.178 73.011,225.897 72.717,225.897 72.359 C 225.897 71.272,223.039 68.770,221.455 68.470 C 220.638 68.315,221.443 68.150,223.245 68.104 C 225.070 68.056,226.521 68.295,226.521 68.643 " fill="#FFAB19" fill-rule="evenodd" stroke="#6c2c95" stroke-width="6"></path></g></svg>