<svg id="svg" xmlns="http://www.w3.org/2000/svg" xmlns:xlink="http://www.w3.org/1999/xlink" width="400" height="400" viewBox="0, 0, 400,400"><g id="svgg"><path id="path0" d="M148.757 19.569 C 99.686 25.975,79.570 86.628,114.810 121.919 C 147.960 155.117,204.291 139.431,215.716 93.822 C 226.027 52.658,191.193 14.029,148.757 19.569 M9.375 196.484 L 9.375 362.500 4.688 362.500 L 0.000 362.500 0.000 371.484 L 0.000 380.469 18.359 380.469 L 36.719 380.469 36.719 371.484 L 36.719 362.500 32.031 362.500 L 27.344 362.500 27.344 342.570 L 27.344 322.640 170.117 322.843 C 301.629 323.031,313.035 323.149,314.720 324.342 C 318.962 327.347,319.122 328.087,319.392 345.898 L 319.642 362.500 314.509 362.500 L 309.375 362.500 309.375 371.484 L 309.375 380.469 328.125 380.469 L 346.875 380.469 346.875 371.484 L 346.875 362.500 342.239 362.500 L 337.602 362.500 337.356 343.925 L 337.109 325.350 334.563 320.181 C 331.599 314.165,327.360 310.031,321.188 307.137 L 316.797 305.078 172.070 304.875 L 27.344 304.671 27.344 214.054 L 27.344 123.438 41.602 123.435 L 55.859 123.432 59.180 119.132 C 63.204 113.922,63.198 114.027,59.609 111.474 L 56.719 109.418 54.563 111.935 C 53.377 113.320,52.393 114.717,52.376 115.039 C 52.358 115.361,48.301 115.625,43.359 115.625 L 34.375 115.625 34.375 101.172 L 34.375 86.719 30.859 86.719 L 27.344 86.719 27.344 58.594 L 27.344 30.469 18.359 30.469 L 9.375 30.469 9.375 196.484 M168.148 54.100 C 195.328 66.543,187.146 106.566,157.410 106.626 C 125.894 106.691,118.878 63.612,148.672 52.970 C 154.324 50.951,162.279 51.413,168.148 54.100 M150.188 66.492 C 139.935 71.567,139.940 87.055,150.197 92.288 C 157.496 96.012,167.108 92.845,170.380 85.638 C 176.282 72.641,163.071 60.115,150.188 66.492 M142.969 192.275 C 142.969 236.082,143.109 241.857,144.234 244.227 C 148.079 252.330,159.486 254.847,166.088 249.050 C 171.784 244.050,171.459 247.323,171.713 192.347 L 171.941 142.898 165.853 143.504 C 158.324 144.254,156.613 144.259,149.023 143.552 L 142.969 142.989 142.969 192.275 M70.313 197.315 C 39.677 203.931,28.749 241.623,50.934 264.155 L 55.459 268.750 78.569 268.750 L 101.678 268.750 106.348 264.296 C 134.818 237.141,108.907 188.980,70.313 197.315 M136.719 214.637 C 121.048 224.859,120.891 248.338,136.389 263.867 L 141.262 268.750 167.413 268.750 L 193.565 268.750 195.898 271.137 L 198.231 273.523 200.618 271.137 L 203.005 268.750 238.774 268.750 L 274.543 268.750 277.311 266.086 L 280.078 263.422 305.745 264.865 C 319.861 265.658,331.585 266.481,331.797 266.693 C 332.009 266.905,337.755 289.340,344.565 316.547 C 351.375 343.755,357.480 367.143,358.132 368.520 C 367.889 389.139,399.958 382.174,399.992 359.429 C 400.000 354.141,372.552 242.345,369.560 235.477 C 366.747 229.023,359.629 223.909,352.219 223.020 C 350.354 222.796,312.441 220.703,267.969 218.368 C 223.496 216.032,184.385 213.909,181.055 213.648 L 175.000 213.174 175.000 225.994 C 175.000 247.087,169.872 255.513,157.073 255.452 C 144.399 255.390,139.886 248.071,139.861 227.539 C 139.851 219.697,139.580 213.300,139.258 213.322 C 138.936 213.345,137.793 213.937,136.719 214.637 M45.015 273.464 C 35.280 276.379,33.754 289.976,42.440 296.413 C 44.636 298.040,44.949 298.048,118.391 298.254 L 192.136 298.461 193.397 296.537 C 196.768 291.391,196.464 277.714,192.899 274.149 C 191.278 272.528,50.322 271.875,45.015 273.464 M203.221 274.664 C 200.128 278.597,199.946 291.994,202.931 295.992 L 204.465 298.047 254.790 298.248 L 305.115 298.449 308.612 296.685 C 317.658 292.124,317.666 279.236,308.625 274.455 L 305.223 272.656 255.012 272.656 L 204.801 272.656 203.221 274.664 " fill="#FFAB19" fill-rule="evenodd" stroke="#6c2c95" stroke-width="6"></path></g></svg>