<svg id="svg" xmlns="http://www.w3.org/2000/svg" xmlns:xlink="http://www.w3.org/1999/xlink" width="400" height="400" viewBox="0, 0, 400,400"><g id="svgg"><path id="path0" d="M235.629 32.389 C 205.860 49.671,214.682 94.947,248.602 98.964 C 285.316 103.312,303.594 55.329,273.237 34.292 C 263.282 27.393,245.762 26.507,235.629 32.389 M205.078 104.756 C 201.026 106.596,188.769 115.832,177.840 125.280 C 157.354 142.989,138.266 156.369,126.647 161.163 C 96.901 173.436,97.854 181.677,134.342 227.688 C 165.002 266.350,161.577 263.791,166.725 251.892 C 168.956 246.732,174.052 239.143,178.047 235.026 C 186.141 226.687,186.528 228.690,173.805 213.063 L 167.071 204.793 179.091 198.223 C 185.702 194.610,193.538 189.823,196.504 187.585 L 201.897 183.517 199.705 162.425 C 196.474 131.343,196.552 130.285,202.530 124.308 C 215.409 111.428,231.111 121.727,231.111 143.054 C 231.111 153.018,233.381 153.361,237.140 143.964 C 248.100 116.573,229.403 93.711,205.078 104.756 M205.253 127.030 C 200.131 132.152,200.170 131.461,203.409 160.011 C 204.795 172.227,206.452 188.222,207.092 195.556 C 208.800 215.136,208.719 214.983,216.501 213.176 C 220.136 212.331,225.721 211.621,228.910 211.598 C 234.577 211.557,234.689 211.405,233.823 204.889 C 233.336 201.222,231.686 185.422,230.158 169.778 C 228.629 154.133,226.974 138.689,226.479 135.456 C 224.614 123.276,213.442 118.841,205.253 127.030 M213.333 219.218 C 140.639 240.257,153.955 344.087,229.333 343.975 C 297.912 343.873,317.533 251.460,255.050 222.854 C 243.386 217.514,224.814 215.896,213.333 219.218 M242.682 248.649 C 270.251 261.173,271.607 299.740,244.932 312.653 C 220.925 324.274,193.778 307.417,193.778 280.889 C 193.778 255.544,219.921 238.309,242.682 248.649 M220.444 272.000 C 215.905 276.540,215.741 286.410,220.140 290.391 C 227.872 297.389,241.778 291.481,241.778 281.199 C 241.778 270.581,227.863 264.581,220.444 272.000 M162.896 331.482 C 161.903 351.269,162.169 356.488,164.389 360.782 C 172.620 376.698,196.092 374.713,200.817 357.701 C 203.750 347.140,203.152 345.209,195.793 341.454 C 185.238 336.070,177.783 329.041,170.631 317.728 L 164.104 307.406 162.896 331.482 " fill="#FFAB19" fill-rule="evenodd" stroke="#6c2c95" stroke-width="6"></path></g></svg>