<svg id="svg" xmlns="http://www.w3.org/2000/svg" xmlns:xlink="http://www.w3.org/1999/xlink" width="400" height="400" viewBox="0, 0, 400,400"><g id="svgg"><path id="path0" d="M201.172 1.253 C 160.950 10.883,144.207 61.845,170.709 93.974 C 199.412 128.773,256.063 118.175,270.052 75.391 C 284.044 32.598,245.140 -9.275,201.172 1.253 M162.315 117.161 C 151.153 119.197,140.451 124.664,131.738 132.780 C 101.292 161.144,86.435 267.117,108.366 299.491 C 118.087 313.841,128.757 317.562,159.694 317.391 C 177.340 317.293,180.540 317.444,179.616 318.327 C 179.011 318.906,169.199 326.992,157.813 336.296 C 131.380 357.893,128.660 361.727,129.952 375.565 C 131.678 394.043,153.373 406.081,169.673 397.605 C 174.046 395.331,281.213 307.885,284.479 303.926 C 295.680 290.346,289.535 267.262,273.041 260.967 C 267.655 258.911,261.240 258.809,222.656 260.160 C 210.840 260.574,198.096 260.918,194.336 260.925 L 187.500 260.938 187.500 258.473 C 187.500 256.565,186.795 255.405,184.369 253.330 C 179.538 249.194,178.503 246.839,162.822 204.297 C 146.150 159.069,145.957 158.279,149.591 150.180 C 155.688 136.595,171.266 132.566,183.482 141.415 C 187.755 144.510,189.723 148.194,195.373 163.672 C 201.339 180.015,200.920 179.605,203.194 171.319 C 212.633 136.923,193.433 111.487,162.315 117.161 M162.891 143.669 C 156.909 146.438,153.125 152.332,153.125 158.880 C 153.125 162.530,181.314 240.688,184.513 245.905 C 186.300 248.821,190.816 251.688,196.937 253.792 C 200.986 255.184,202.559 255.205,232.701 254.273 C 267.468 253.197,270.639 253.423,278.148 257.510 C 285.464 261.492,292.382 270.143,294.480 277.934 C 296.227 284.423,301.811 277.435,301.818 268.750 C 301.828 257.035,301.085 256.578,252.365 238.335 L 211.538 223.047 198.065 186.484 C 182.207 143.450,181.426 142.222,169.922 142.222 C 167.766 142.222,164.616 142.870,162.891 143.669 " fill="#FFAB19" fill-rule="evenodd" stroke="#6c2c95" stroke-width="6"></path></g></svg>