<svg id="svg" xmlns="http://www.w3.org/2000/svg" xmlns:xlink="http://www.w3.org/1999/xlink" width="400" height="400" viewBox="0, 0, 400,400"><g id="svgg"><path id="path0" d="M280.703 19.376 C 252.478 29.458,259.211 70.436,289.093 70.436 C 313.127 70.436,324.358 41.366,306.734 24.775 C 300.415 18.826,288.918 16.442,280.703 19.376 M251.172 69.283 C 247.443 69.869,247.212 70.773,249.987 73.932 C 263.570 89.403,254.087 108.983,227.930 119.474 C 225.459 120.464,223.438 121.384,223.438 121.516 C 223.438 121.649,221.855 128.608,219.922 136.982 C 217.988 145.356,216.406 152.765,216.406 153.447 C 216.406 154.558,219.459 154.688,245.648 154.688 L 274.889 154.688 275.709 150.586 C 280.045 128.892,284.611 101.686,284.661 97.247 C 284.857 79.766,268.959 66.490,251.172 69.283 M230.469 75.394 C 229.824 75.530,226.660 76.068,223.438 76.591 C 212.054 78.437,195.391 85.637,181.746 94.606 C 174.124 99.616,173.317 101.278,171.540 115.625 C 170.821 121.426,168.369 134.785,166.090 145.313 L 161.947 164.453 126.809 164.844 L 91.671 165.234 87.849 167.599 C 85.481 169.063,83.126 171.419,81.661 173.787 L 79.297 177.611 78.906 267.907 L 78.516 358.203 56.772 358.594 C 30.534 359.065,32.813 357.788,32.813 372.024 L 32.813 382.031 87.891 382.031 L 142.969 382.031 142.969 371.875 C 142.969 357.465,145.061 358.594,118.342 358.594 L 96.841 358.594 97.053 274.770 C 97.255 195.096,97.336 190.838,98.694 188.767 C 101.446 184.568,102.941 184.375,132.743 184.375 L 160.068 184.375 161.445 186.706 C 165.545 193.647,184.083 193.332,191.214 186.201 L 193.072 184.343 245.347 184.554 L 297.621 184.766 299.681 186.825 C 302.993 190.138,303.055 191.793,303.091 277.148 L 303.125 358.594 281.641 358.594 C 254.941 358.594,257.031 357.466,257.031 371.875 L 257.031 382.031 312.109 382.031 L 367.188 382.031 367.188 372.024 C 367.187 357.788,369.466 359.065,343.228 358.594 L 321.484 358.203 321.094 267.907 L 320.703 177.611 318.339 173.787 C 316.874 171.418,314.520 169.064,312.151 167.599 L 308.327 165.234 249.405 165.020 L 190.484 164.805 187.905 162.071 L 185.326 159.336 188.706 151.655 C 193.552 140.645,194.689 135.594,194.433 126.225 L 194.217 118.359 196.523 118.142 C 216.667 116.246,242.313 105.726,246.466 97.656 C 252.140 86.633,242.281 72.913,230.469 75.394 M205.823 195.351 C 200.026 201.762,200.514 219.101,206.943 235.124 C 210.797 244.731,211.719 249.545,211.719 260.072 L 211.719 268.294 208.398 265.049 C 203.338 260.102,181.696 251.479,179.712 253.619 C 178.022 255.441,166.320 279.049,166.542 280.188 C 166.796 281.494,192.439 298.041,200.998 302.421 C 215.391 309.788,235.351 312.559,240.367 307.885 C 248.988 299.854,264.731 243.158,264.902 219.531 C 264.934 215.020,265.531 207.735,266.228 203.344 C 266.925 198.953,267.329 195.194,267.125 194.990 C 265.972 193.836,206.878 194.185,205.823 195.351 M130.578 268.005 C 119.096 295.134,119.404 294.062,122.773 295.236 C 130.036 297.768,133.554 296.181,142.655 286.266 C 146.666 281.897,151.244 277.774,153.507 276.494 C 157.015 274.510,171.004 251.644,169.420 250.484 C 168.735 249.983,143.661 243.750,142.331 243.750 C 141.122 243.750,138.927 248.278,130.578 268.005 " fill="#FFAB19" fill-rule="evenodd" stroke="#6c2c95" stroke-width="6"></path></g></svg>