<svg id="svg" xmlns="http://www.w3.org/2000/svg" xmlns:xlink="http://www.w3.org/1999/xlink" width="400" height="400" viewBox="0, 0, 400,400"><g id="svgg"><path id="path0" d="M307.227 79.023 C 303.403 84.555,297.382 93.406,293.847 98.692 C 289.075 105.827,286.227 108.893,282.790 110.593 C 280.244 111.853,278.161 113.588,278.161 114.447 C 278.161 115.307,277.077 116.591,275.753 117.300 C 273.765 118.363,273.473 119.273,274.079 122.502 C 274.704 125.834,274.127 127.399,270.198 133.035 C 263.736 142.304,262.565 143.678,261.125 143.678 C 258.927 143.678,255.172 148.596,255.172 151.476 C 255.172 153.149,249.885 161.771,241.795 173.289 C 227.945 193.006,226.567 195.796,230.460 196.235 C 232.218 196.433,235.829 192.298,245.815 178.653 C 252.995 168.840,259.461 161.005,260.182 161.241 C 263.038 162.176,264.225 169.471,263.047 178.842 C 261.783 188.902,262.589 198.898,265.055 203.736 C 265.942 205.474,267.443 208.399,268.391 210.235 C 269.339 212.071,270.115 214.101,270.115 214.746 C 270.115 216.415,236.643 215.508,228.736 213.624 C 213.660 210.032,157.534 213.309,137.895 218.927 C 125.937 222.347,61.925 221.142,56.981 217.402 C 52.327 213.882,41.900 212.338,28.276 213.152 C 20.626 213.608,12.043 214.090,9.202 214.223 C 3.451 214.491,2.688 215.702,3.969 222.529 C 4.417 224.916,5.375 226.437,6.431 226.437 C 9.048 226.437,15.100 229.758,18.966 233.316 C 20.862 235.062,23.765 236.806,25.417 237.193 C 27.069 237.580,31.531 239.973,35.332 242.511 C 43.357 247.870,43.438 247.882,49.621 244.728 C 55.949 241.499,67.266 243.927,86.207 252.576 C 101.255 259.447,104.250 260.006,125.645 259.941 C 142.720 259.889,146.885 260.251,156.322 262.604 C 170.748 266.202,181.889 267.816,192.301 267.816 C 198.967 267.816,203.483 268.695,212.979 271.839 C 227.659 276.700,230.105 276.753,242.237 272.474 C 249.578 269.885,253.078 269.249,257.755 269.654 C 277.726 271.383,331.349 273.243,337.138 272.408 C 343.767 271.451,354.860 265.446,362.057 258.918 C 364.263 256.917,366.301 256.322,370.942 256.322 C 388.572 256.322,396.871 241.609,388.448 225.287 C 384.699 218.023,374.468 211.463,370.336 213.675 C 369.033 214.372,366.511 214.959,364.731 214.979 C 362.951 214.999,360.490 215.775,359.263 216.703 C 352.712 221.658,336.666 208.398,331.024 193.366 C 328.162 185.743,323.372 176.235,321.949 175.356 C 321.354 174.987,320.532 173.011,320.122 170.964 C 318.366 162.178,315.446 155.271,310.531 148.276 C 299.245 132.214,295.402 125.863,295.402 123.273 C 295.402 121.789,294.672 119.163,293.779 117.436 C 292.187 114.357,292.433 113.923,306.422 95.126 C 321.029 75.500,322.169 73.216,318.678 70.566 C 315.283 67.988,314.408 68.635,307.227 79.023 M283.946 132.778 C 289.351 135.573,291.324 140.721,293.160 156.814 C 294.262 166.482,297.437 175.902,301.904 182.760 C 303.345 184.974,305.539 189.733,306.779 193.337 C 309.084 200.037,314.711 210.614,316.337 211.303 C 317.806 211.925,317.368 214.940,315.805 214.966 C 315.014 214.978,311.015 215.473,306.918 216.065 C 300.339 217.016,299.196 216.892,297.148 215.003 C 295.872 213.827,292.888 212.065,290.517 211.088 C 287.590 209.883,286.207 208.584,286.207 207.042 C 286.207 205.793,284.580 200.724,282.591 195.777 C 278.961 186.744,274.713 171.628,274.713 167.742 C 274.713 166.596,273.375 161.511,271.740 156.442 L 268.767 147.225 274.326 139.166 C 277.383 134.734,280.040 131.091,280.229 131.071 C 280.419 131.051,282.091 131.819,283.946 132.778 " fill="#FFAB19" fill-rule="evenodd" stroke="#6c2c95" stroke-width="6"></path></g></svg>