<svg id="svg" xmlns="http://www.w3.org/2000/svg" xmlns:xlink="http://www.w3.org/1999/xlink" width="400" height="400" viewBox="0, 0, 400,400"><g id="svgg"><path id="path0" d="M194.727 6.623 C 193.867 6.810,192.373 7.248,191.406 7.598 C 190.439 7.948,189.348 8.304,188.981 8.388 C 186.694 8.917,180.788 14.109,178.621 17.497 C 166.054 37.142,185.849 61.803,207.335 53.270 C 211.044 51.797,217.969 46.593,217.969 45.279 C 217.969 45.111,218.493 44.127,219.135 43.092 C 229.572 26.251,213.681 2.507,194.727 6.623 M155.469 53.680 C 154.502 53.956,153.248 54.372,152.682 54.603 C 151.546 55.068,145.589 59.960,142.917 62.623 C 141.979 63.558,140.068 65.341,138.672 66.586 C 127.581 76.472,127.214 77.354,128.085 91.992 C 128.328 96.074,128.618 102.227,128.729 105.664 C 129.004 114.180,130.370 131.248,130.957 133.508 C 132.459 139.289,140.081 142.622,145.086 139.687 C 150.711 136.387,151.126 134.079,151.155 105.931 C 151.172 89.421,151.289 87.891,152.533 87.891 C 152.837 87.891,153.227 87.656,153.399 87.369 C 153.570 87.083,155.409 85.427,157.485 83.690 L 161.260 80.531 161.482 84.308 C 161.604 86.386,162.247 94.502,162.909 102.344 C 163.572 110.186,164.193 118.337,164.290 120.459 C 164.387 122.580,164.562 124.470,164.678 124.658 C 164.917 125.045,226.099 125.131,230.130 124.750 L 232.721 124.505 232.982 121.505 C 233.126 119.854,233.320 116.920,233.412 114.983 C 233.504 113.046,234.109 105.449,234.755 98.102 C 235.401 90.755,235.911 84.617,235.888 84.462 C 235.724 83.378,236.005 80.359,236.236 80.713 C 236.394 80.955,237.674 82.098,239.081 83.252 C 240.487 84.407,241.893 85.574,242.206 85.845 C 242.518 86.116,243.529 86.919,244.451 87.627 L 246.129 88.916 246.120 103.931 C 246.109 120.001,246.555 131.373,247.284 133.603 C 250.672 143.981,264.812 142.790,266.748 131.964 C 267.741 126.413,269.340 97.200,269.332 84.766 C 269.326 76.327,269.084 75.918,258.239 66.016 C 256.239 64.189,253.699 61.847,252.594 60.811 C 244.339 53.067,244.587 53.142,228.115 53.402 L 215.430 53.603 212.860 55.100 C 204.051 60.231,193.540 60.275,184.495 55.217 L 182.049 53.849 172.763 53.500 C 160.610 53.043,157.589 53.074,155.469 53.680 M78.667 96.351 C 76.889 96.725,76.953 91.229,76.953 243.317 L 76.953 388.160 77.775 388.904 C 78.507 389.567,79.375 389.663,85.703 389.782 L 92.809 389.916 94.061 388.746 L 95.313 387.577 95.313 264.101 L 95.313 140.625 112.891 140.625 C 122.559 140.625,130.469 140.527,130.469 140.407 C 130.469 140.287,129.936 139.525,129.284 138.715 C 127.654 136.686,126.563 133.612,126.563 131.050 L 126.563 128.906 110.950 128.906 L 95.338 128.906 95.228 113.295 C 95.126 98.924,95.062 97.628,94.421 96.986 C 93.742 96.307,81.265 95.803,78.667 96.351 M303.906 96.353 C 302.380 96.930,302.344 97.321,302.344 113.356 L 302.344 128.906 286.719 128.906 L 271.094 128.906 271.094 130.408 C 271.094 132.985,268.949 138.369,267.520 139.378 C 265.560 140.761,266.351 140.823,284.570 140.715 L 302.344 140.609 302.344 264.207 C 302.344 385.363,302.359 387.822,303.091 388.726 C 304.146 390.027,318.084 390.179,319.491 388.904 L 320.313 388.160 320.313 242.761 C 320.313 108.093,320.265 97.322,319.668 96.825 C 319.006 96.275,305.208 95.861,303.906 96.353 M154.304 130.566 C 154.340 131.479,154.332 132.402,154.287 132.617 C 154.241 132.832,154.221 133.128,154.242 133.276 C 154.335 133.936,153.119 136.689,152.004 138.341 C 151.331 139.337,150.781 140.259,150.781 140.389 C 150.781 140.519,172.314 140.625,198.633 140.625 C 224.951 140.625,246.484 140.534,246.484 140.424 C 246.484 140.313,245.878 139.302,245.136 138.178 C 243.691 135.986,243.440 135.149,243.088 131.348 L 242.862 128.906 198.550 128.906 L 154.238 128.906 154.304 130.566 M167.012 145.262 C 165.945 145.490,163.620 154.294,164.303 155.518 C 164.378 155.653,163.904 158.817,163.249 162.549 C 162.593 166.282,161.971 170.303,161.865 171.484 C 161.759 172.666,161.167 176.533,160.549 180.078 C 159.931 183.623,159.317 187.566,159.185 188.841 C 159.052 190.116,158.689 192.489,158.378 194.114 C 156.677 203.003,157.205 204.162,169.010 217.463 C 171.338 220.086,177.899 227.557,183.590 234.065 C 189.281 240.573,194.229 246.162,194.584 246.484 C 194.939 246.807,197.073 249.180,199.324 251.758 C 204.687 257.897,205.611 258.739,208.398 260.017 C 218.577 264.686,229.075 253.688,224.225 243.436 C 223.267 241.410,220.069 236.701,219.133 235.938 C 219.001 235.830,217.242 233.545,215.224 230.859 C 213.205 228.174,211.327 225.836,211.050 225.664 C 210.773 225.492,210.547 225.097,210.547 224.785 C 210.547 224.474,210.399 224.219,210.219 224.219 C 210.038 224.219,208.620 222.505,207.068 220.410 C 203.701 215.864,202.381 214.203,201.465 213.352 C 201.089 213.003,200.781 212.511,200.781 212.260 C 200.781 212.008,200.506 211.697,200.171 211.568 C 199.835 211.439,199.669 211.157,199.803 210.940 C 199.937 210.724,199.880 210.547,199.676 210.547 C 199.473 210.547,198.077 208.921,196.574 206.934 C 195.072 204.946,193.470 202.985,193.015 202.576 C 192.560 202.167,192.188 201.610,192.188 201.339 C 192.188 201.068,192.031 200.788,191.839 200.716 C 191.648 200.645,190.740 199.632,189.822 198.465 L 188.152 196.344 189.041 192.606 C 189.530 190.549,189.981 188.381,190.044 187.786 C 190.150 186.776,190.637 184.604,193.788 171.094 C 194.464 168.193,195.081 165.134,195.159 164.296 C 195.400 161.699,196.173 160.938,198.567 160.938 C 201.627 160.938,202.210 161.815,202.931 167.508 C 203.006 168.104,203.445 170.069,203.906 171.875 C 204.367 173.681,204.811 175.695,204.893 176.349 C 204.974 177.004,205.558 179.736,206.190 182.422 C 206.822 185.107,207.814 189.368,208.394 191.890 L 209.450 196.476 205.289 201.412 L 201.128 206.349 202.029 207.366 C 202.524 207.925,203.501 208.997,204.199 209.747 C 204.897 210.496,205.469 211.335,205.469 211.610 C 205.469 211.885,205.612 212.109,205.787 212.109 C 206.046 212.109,211.667 219.190,215.039 223.765 C 215.469 224.347,216.304 225.345,216.895 225.982 C 217.485 226.619,217.969 227.274,217.969 227.437 C 217.969 228.627,220.133 226.538,227.472 218.262 C 232.093 213.052,236.392 208.212,237.027 207.506 C 239.552 204.697,240.261 200.441,239.245 194.180 C 238.918 192.160,238.577 189.699,238.489 188.711 C 238.335 186.992,237.363 180.663,234.709 164.088 C 234.040 159.912,233.443 155.744,233.381 154.826 C 233.319 153.907,232.964 151.303,232.592 149.039 L 231.917 144.922 200.040 144.968 C 182.508 144.994,167.645 145.126,167.012 145.262 M176.953 238.060 C 173.324 242.260,172.175 244.507,171.962 247.821 C 171.354 257.297,180.574 263.940,188.879 260.010 C 191.100 258.958,195.321 255.090,195.307 254.118 C 195.297 253.461,194.125 251.960,190.333 247.743 C 189.420 246.729,186.695 243.578,184.278 240.742 C 179.140 234.714,179.675 234.910,176.953 238.060 " fill="#FFAB19" fill-rule="evenodd" stroke="#6c2c95" stroke-width="6"></path></g></svg>