<svg id="svg" version="1.1" xmlns="http://www.w3.org/2000/svg" xmlns:xlink="http://www.w3.org/1999/xlink" width="400" height="400" viewBox="0, 0, 400,400"><g id="svgg" transform="translate(25,25)"><path id="path0" d="M195.313 54.334 C 193.486 54.511,190.511 55.085,188.701 55.610 C 186.890 56.134,185.148 56.463,184.828 56.340 C 184.508 56.217,184.351 56.287,184.480 56.495 C 184.756 56.941,179.366 59.580,178.516 59.415 C 178.193 59.352,178.061 59.434,178.221 59.596 C 178.631 60.013,175.863 61.815,175.323 61.482 C 175.068 61.324,174.986 61.380,175.131 61.614 C 175.455 62.139,174.383 63.038,173.836 62.700 C 173.606 62.558,173.466 62.675,173.525 62.959 C 173.585 63.244,173.400 63.428,173.115 63.369 C 172.831 63.310,172.699 63.426,172.823 63.626 C 173.061 64.011,169.382 67.298,169.066 66.982 C 168.964 66.880,168.880 67.027,168.880 67.308 C 168.880 67.590,167.982 68.963,166.883 70.361 C 164.630 73.228,162.287 77.243,160.937 80.549 C 160.436 81.775,159.853 82.671,159.640 82.540 C 159.421 82.404,159.378 82.501,159.540 82.763 C 159.697 83.017,159.434 84.846,158.956 86.828 C 157.933 91.068,157.608 107.711,158.566 106.791 C 158.659 106.703,159.117 107.907,159.585 109.467 C 160.053 111.028,160.733 112.980,161.097 113.805 C 161.461 114.630,161.574 115.191,161.348 115.051 C 161.122 114.912,160.938 114.984,160.938 115.211 C 160.938 115.439,161.157 115.628,161.426 115.631 C 161.694 115.634,162.404 116.557,163.003 117.681 C 163.602 118.806,163.848 119.422,163.550 119.049 C 163.252 118.676,162.894 118.486,162.754 118.626 C 162.407 118.973,162.433 119.545,162.793 119.469 C 163.546 119.310,164.544 120.188,166.337 122.588 C 167.408 124.022,168.822 125.706,169.480 126.329 C 170.137 126.953,170.567 127.639,170.434 127.855 C 170.301 128.070,170.378 128.131,170.606 127.990 C 170.833 127.849,171.783 128.374,172.717 129.157 C 173.650 129.939,175.062 131.010,175.853 131.535 C 176.832 132.186,177.226 132.699,177.086 133.140 C 176.937 133.610,176.978 133.652,177.237 133.293 C 177.514 132.909,178.439 133.196,181.292 134.547 C 184.993 136.300,191.439 138.278,193.457 138.280 C 194.048 138.281,194.531 138.413,194.531 138.574 C 194.530 139.882,209.538 138.204,214.944 136.293 C 216.672 135.682,218.262 135.291,218.478 135.425 C 218.694 135.558,218.764 135.495,218.634 135.285 C 218.350 134.826,221.765 133.089,222.301 133.420 C 222.507 133.548,222.627 133.479,222.568 133.267 C 222.509 133.055,223.695 132.011,225.204 130.947 C 226.713 129.882,229.256 127.682,230.856 126.059 C 232.456 124.435,233.929 123.208,234.130 123.332 C 234.331 123.457,234.378 123.367,234.233 123.134 C 233.906 122.604,236.887 118.278,237.314 118.664 C 237.485 118.819,237.507 118.739,237.363 118.487 C 237.218 118.235,237.445 117.444,237.867 116.729 C 244.993 104.650,243.435 84.424,234.412 71.883 C 233.565 70.706,232.903 69.651,232.940 69.539 C 232.977 69.427,232.832 69.279,232.617 69.210 C 231.743 68.929,230.846 67.785,231.062 67.224 C 231.188 66.895,231.172 66.745,231.025 66.891 C 230.408 67.508,227.449 64.483,227.586 63.377 C 227.702 62.449,227.681 62.424,227.434 63.191 C 227.156 64.054,227.078 64.026,224.414 62.081 C 222.910 60.984,220.132 59.328,218.240 58.403 C 216.347 57.478,214.941 56.643,215.115 56.549 C 215.288 56.455,215.203 56.434,214.926 56.503 C 214.649 56.572,212.910 56.190,211.063 55.655 C 208.432 54.892,199.846 53.705,198.828 53.962 C 198.721 53.990,197.139 54.157,195.313 54.334 M100.977 115.379 C 99.688 115.574,98.155 115.735,97.571 115.736 C 96.986 115.737,96.589 115.868,96.687 116.027 C 96.956 116.463,94.648 117.306,94.104 116.969 C 93.819 116.793,93.730 116.839,93.882 117.084 C 94.140 117.503,92.519 118.770,91.541 118.914 C 91.240 118.958,90.981 119.159,90.965 119.360 C 90.948 119.562,90.277 120.441,89.472 121.314 C 87.569 123.378,86.191 125.784,85.186 128.796 C 83.909 132.621,83.915 207.064,85.192 210.953 C 86.157 213.892,87.504 216.891,88.017 217.241 C 88.217 217.379,88.258 217.691,88.107 217.935 C 87.956 218.179,87.977 218.337,88.155 218.287 C 88.332 218.236,89.577 219.284,90.922 220.616 C 92.268 221.947,94.245 223.537,95.316 224.149 C 96.388 224.761,97.173 225.353,97.060 225.466 C 96.948 225.578,97.168 225.915,97.549 226.214 C 98.193 226.719,98.200 226.704,97.656 226.001 C 97.114 225.300,97.128 225.269,97.852 225.575 C 103.444 227.938,110.622 227.858,116.516 225.367 C 117.542 224.933,118.580 224.700,118.822 224.849 C 119.090 225.015,119.153 224.945,118.983 224.670 C 118.730 224.260,119.216 224.038,120.049 224.182 C 120.226 224.213,120.272 224.079,120.153 223.885 C 119.882 223.447,122.944 221.374,123.424 221.671 C 123.617 221.790,123.901 221.682,124.057 221.430 C 124.248 221.121,124.161 221.075,123.791 221.286 C 122.818 221.841,123.924 220.873,125.732 219.588 C 126.672 218.920,127.600 218.471,127.793 218.591 C 127.986 218.710,128.096 218.575,128.037 218.291 C 127.978 218.005,128.233 217.797,128.609 217.827 C 128.983 217.856,129.206 217.747,129.105 217.584 C 128.862 217.190,135.902 212.268,136.470 212.435 C 136.714 212.507,136.783 212.434,136.624 212.275 C 136.208 211.860,137.801 210.836,138.342 211.171 C 138.612 211.337,138.687 211.278,138.529 211.022 C 138.378 210.779,139.024 210.073,140.034 209.379 L 141.802 208.162 141.784 252.319 C 141.771 283.752,141.889 296.708,142.195 297.280 C 142.712 298.246,144.107 298.828,145.901 298.828 C 146.626 298.828,147.328 299.004,147.461 299.219 C 147.594 299.434,148.000 299.597,148.363 299.582 C 148.901 299.560,148.879 299.492,148.242 299.219 C 147.744 299.005,149.133 298.873,152.074 298.856 C 155.056 298.838,156.601 298.966,156.445 299.219 C 156.305 299.446,156.664 299.598,157.301 299.582 C 158.272 299.558,158.309 299.515,157.617 299.210 C 157.091 298.977,158.048 298.854,160.547 298.833 C 165.983 298.787,166.141 298.797,166.565 299.221 C 166.778 299.435,167.138 299.607,167.363 299.603 C 167.589 299.600,167.510 299.427,167.188 299.219 C 166.716 298.914,166.778 298.839,167.504 298.834 C 168.006 298.831,168.299 299.001,168.164 299.219 C 168.031 299.434,168.109 299.609,168.336 299.609 C 168.564 299.609,168.750 299.471,168.750 299.302 C 168.750 299.133,169.105 298.968,169.540 298.935 C 170.011 298.899,170.225 299.044,170.071 299.293 C 169.920 299.537,170.038 299.629,170.356 299.514 C 170.654 299.405,170.863 299.143,170.819 298.931 C 170.703 298.371,178.045 298.666,178.748 299.250 C 179.206 299.630,179.271 299.606,179.087 299.126 C 178.895 298.627,179.256 298.546,181.324 298.619 C 182.680 298.668,184.722 298.735,185.863 298.768 C 187.004 298.801,187.851 298.967,187.747 299.136 C 187.642 299.305,188.027 299.479,188.602 299.523 C 189.408 299.583,189.514 299.514,189.063 299.221 C 188.590 298.914,188.652 298.839,189.379 298.834 C 189.988 298.830,190.191 298.987,190.005 299.316 C 189.784 299.707,189.834 299.707,190.255 299.316 C 190.836 298.777,192.030 298.663,192.286 299.121 C 192.376 299.282,192.413 299.238,192.368 299.023 C 192.243 298.423,202.973 298.606,203.709 299.218 C 204.115 299.554,204.297 299.569,204.297 299.267 C 204.297 299.025,204.483 298.828,204.711 298.828 C 204.938 298.828,205.025 298.988,204.904 299.184 C 204.669 299.564,205.405 299.547,206.055 299.158 C 206.696 298.774,210.313 298.892,210.840 299.314 C 211.173 299.581,211.328 299.565,211.328 299.267 C 211.328 298.661,212.888 298.710,212.903 299.316 C 212.910 299.638,213.032 299.604,213.257 299.219 C 213.517 298.774,214.174 298.665,215.981 298.765 C 217.653 298.858,218.284 299.033,218.098 299.351 C 217.953 299.601,218.172 299.530,218.585 299.194 C 218.998 298.858,219.731 298.616,220.215 298.657 C 220.698 298.697,223.071 298.755,225.488 298.785 C 228.486 298.823,229.697 298.960,229.297 299.219 C 228.796 299.542,228.810 299.598,229.395 299.603 C 229.771 299.607,230.078 299.434,230.078 299.219 C 230.078 299.004,230.430 298.828,230.859 298.828 C 231.289 298.828,231.643 299.048,231.647 299.316 C 231.651 299.681,231.736 299.673,231.984 299.283 C 232.478 298.503,253.060 298.488,253.554 299.267 C 253.784 299.630,253.896 299.652,253.900 299.334 C 253.904 299.075,254.510 298.750,255.248 298.612 C 258.079 298.081,257.864 301.921,257.831 252.528 L 257.802 208.101 258.686 208.706 C 259.172 209.040,259.522 209.515,259.463 209.763 C 259.404 210.011,259.523 210.111,259.729 209.984 C 260.181 209.704,265.316 213.225,265.059 213.639 C 264.960 213.800,265.094 213.932,265.357 213.932 C 266.191 213.932,269.139 216.093,268.879 216.514 C 268.741 216.736,268.808 216.807,269.026 216.673 C 269.521 216.366,275.625 220.594,275.479 221.142 C 275.420 221.362,275.523 221.449,275.708 221.335 C 275.893 221.220,276.996 221.758,278.159 222.530 C 279.322 223.303,281.279 224.414,282.507 225.000 C 283.736 225.587,284.615 226.206,284.460 226.377 C 284.306 226.548,284.393 226.565,284.654 226.415 C 284.915 226.266,286.171 226.413,287.445 226.743 C 294.493 228.570,302.002 226.657,308.246 221.445 C 309.236 220.618,310.187 220.069,310.359 220.225 C 310.531 220.380,310.562 220.314,310.427 220.078 C 310.292 219.841,310.630 219.050,311.177 218.320 C 312.476 216.587,314.158 213.239,315.082 210.547 C 316.175 207.365,316.228 128.505,315.137 129.166 C 314.976 129.263,314.844 129.084,314.844 128.766 C 314.844 128.449,314.240 127.051,313.501 125.659 C 312.763 124.267,312.279 122.994,312.427 122.830 C 312.575 122.665,312.496 122.645,312.251 122.785 C 311.693 123.104,310.781 122.054,311.128 121.492 C 311.270 121.262,311.238 121.123,311.056 121.182 C 310.874 121.241,309.922 120.631,308.940 119.827 C 307.957 119.023,306.161 117.865,304.947 117.253 C 303.734 116.640,302.827 116.053,302.933 115.947 C 303.039 115.842,302.642 115.737,302.051 115.714 C 301.460 115.691,300.098 115.526,299.023 115.348 C 293.857 114.488,286.487 116.842,283.300 120.370 C 282.555 121.194,281.767 121.758,281.547 121.622 C 281.325 121.485,281.233 121.616,281.339 121.918 C 281.444 122.217,281.225 122.900,280.854 123.438 C 277.306 128.567,277.236 129.181,277.216 155.347 L 277.198 178.137 275.919 176.897 C 275.215 176.215,274.748 175.482,274.880 175.268 C 275.012 175.054,274.938 174.992,274.714 175.131 C 274.208 175.444,273.338 174.460,273.734 174.023 C 273.893 173.847,273.829 173.814,273.592 173.949 C 273.053 174.256,271.369 172.522,271.774 172.076 C 271.937 171.897,271.871 171.864,271.626 172.003 C 271.088 172.311,270.201 171.347,270.609 170.898 C 270.768 170.722,270.707 170.687,270.473 170.820 C 269.986 171.097,265.379 167.325,265.527 166.770 C 265.581 166.570,265.405 166.450,265.137 166.504 C 264.868 166.558,264.697 166.369,264.756 166.084 C 264.815 165.800,264.683 165.679,264.462 165.815 C 263.923 166.148,260.506 163.664,260.815 163.164 C 260.949 162.947,260.869 162.887,260.637 163.030 C 260.405 163.174,259.388 162.851,258.377 162.313 C 257.366 161.776,255.594 161.038,254.438 160.674 C 253.282 160.309,252.508 159.906,252.717 159.776 C 253.535 159.271,246.553 159.194,199.219 159.187 L 150.195 159.180 147.275 160.097 C 145.670 160.601,143.510 161.442,142.476 161.966 C 141.442 162.490,140.399 162.797,140.159 162.649 C 139.913 162.496,139.831 162.555,139.972 162.783 C 140.109 163.004,139.514 163.654,138.650 164.226 C 137.157 165.214,133.341 168.489,129.131 172.395 C 128.073 173.377,127.058 174.088,126.875 173.975 C 126.693 173.862,126.591 173.922,126.650 174.107 C 126.710 174.293,126.012 175.317,125.100 176.383 L 123.443 178.320 123.422 177.148 C 123.410 176.504,123.326 166.660,123.235 155.273 C 123.144 143.887,122.959 133.607,122.823 132.429 C 121.603 121.809,111.348 113.805,100.977 115.379 M57.785 135.147 C 57.017 135.553,56.163 136.158,55.885 136.493 C 55.607 136.827,55.254 137.023,55.099 136.927 C 54.944 136.831,54.801 136.965,54.781 137.224 C 54.761 137.483,54.452 138.486,54.094 139.453 C 53.316 141.555,53.544 144.048,54.682 145.889 C 55.109 146.580,55.329 147.275,55.171 147.434 C 55.012 147.592,55.059 147.667,55.273 147.601 C 55.488 147.535,56.631 147.957,57.813 148.539 C 59.895 149.566,75.735 150.479,75.153 149.540 C 75.062 149.394,75.369 149.218,75.834 149.149 C 77.529 148.897,78.087 147.415,78.161 142.969 C 78.262 136.914,78.240 136.773,76.983 135.517 L 75.841 134.375 67.511 134.392 C 60.118 134.408,59.023 134.493,57.785 135.147 M130.232 134.659 C 130.363 134.790,130.162 135.237,129.786 135.653 C 129.098 136.412,128.313 147.441,128.976 147.028 C 129.121 146.938,129.358 147.234,129.502 147.686 C 130.119 149.631,130.661 149.669,157.602 149.657 C 173.040 149.650,183.054 149.498,183.676 149.262 C 184.231 149.051,184.764 148.957,184.860 149.053 C 184.956 149.149,184.929 148.574,184.799 147.776 C 184.543 146.204,184.352 146.048,176.758 141.213 C 170.099 136.973,168.418 135.769,168.644 135.403 C 168.769 135.201,168.673 135.158,168.431 135.307 C 168.189 135.457,167.459 135.303,166.807 134.966 C 165.606 134.345,129.616 134.043,130.232 134.659 M230.860 136.107 C 229.268 137.059,227.799 137.735,227.594 137.609 C 227.390 137.483,227.339 137.567,227.480 137.796 C 227.840 138.378,223.853 140.776,222.656 140.697 C 222.001 140.654,221.848 140.740,222.191 140.959 C 222.577 141.206,222.454 141.449,221.692 141.948 C 221.136 142.313,220.522 142.513,220.328 142.393 C 220.135 142.273,219.849 142.381,219.693 142.632 C 219.502 142.942,219.587 142.987,219.959 142.771 C 221.317 141.983,219.841 143.099,217.663 144.507 C 212.895 147.589,213.985 149.593,220.453 149.636 C 240.367 149.768,267.649 149.563,268.403 149.275 C 271.300 148.167,272.252 137.841,269.692 135.281 L 268.786 134.375 251.269 134.375 L 233.753 134.375 230.860 136.107 M323.354 134.982 C 321.050 136.232,320.609 146.181,322.763 148.332 L 323.846 149.414 332.624 149.471 C 337.716 149.504,341.311 149.381,341.186 149.178 C 341.067 148.986,341.150 148.828,341.370 148.828 C 342.015 148.828,344.522 146.463,345.137 145.274 C 346.307 143.012,345.444 137.570,343.749 136.523 C 343.528 136.386,343.465 136.083,343.609 135.850 C 343.760 135.605,343.690 135.538,343.443 135.690 C 343.208 135.836,342.434 135.600,341.723 135.166 C 340.025 134.131,325.196 133.982,323.354 134.982 " fill="#FFAB19" fill-rule="evenodd" stroke="#6c2c95" stroke-width="6"></path></g></svg>