<svg id="svg" version="1.1" xmlns="http://www.w3.org/2000/svg" xmlns:xlink="http://www.w3.org/1999/xlink" width="400" height="400" viewBox="0, 0, 400,400"><g id="svgg" transform="translate(25,25)"><path id="path0" d="M303.125 116.016 C 303.125 116.230,302.525 116.406,301.792 116.406 C 297.618 116.406,290.910 118.399,286.503 120.949 C 284.796 121.937,283.186 122.755,282.927 122.766 C 282.668 122.777,282.535 122.913,282.631 123.069 C 282.726 123.224,282.207 123.807,281.475 124.365 C 280.744 124.922,279.868 125.656,279.529 125.996 C 279.190 126.335,278.708 126.486,278.458 126.332 C 278.182 126.161,278.109 126.221,278.273 126.486 C 278.421 126.726,277.944 127.588,277.212 128.402 C 276.480 129.217,275.170 130.903,274.299 132.150 C 273.429 133.397,272.601 134.393,272.459 134.364 C 272.317 134.334,272.083 134.441,271.940 134.600 C 271.797 134.760,271.899 134.764,272.168 134.610 C 272.855 134.215,272.785 134.535,271.730 136.634 C 266.759 146.524,266.826 159.309,271.902 169.429 C 272.927 171.472,273.700 173.478,273.622 173.887 C 273.543 174.296,273.648 174.526,273.855 174.398 C 274.062 174.269,274.130 174.001,274.007 173.801 C 273.883 173.601,273.859 173.438,273.954 173.438 C 274.241 173.438,276.243 176.186,276.319 176.684 C 276.434 177.444,276.985 178.151,277.307 177.952 C 277.472 177.850,278.295 178.473,279.136 179.336 C 280.157 180.385,280.405 180.812,279.883 180.625 C 279.453 180.470,279.217 180.473,279.359 180.631 C 279.500 180.789,279.852 180.954,280.140 180.997 C 281.073 181.139,281.660 181.683,281.389 182.156 C 281.244 182.410,281.264 182.492,281.434 182.338 C 281.891 181.925,283.270 182.780,282.958 183.283 C 282.804 183.533,282.870 183.605,283.115 183.453 C 283.347 183.309,284.356 183.744,285.357 184.420 C 287.664 185.977,292.543 188.043,295.449 188.693 C 296.794 188.994,297.622 189.370,297.520 189.634 C 297.427 189.877,297.725 190.103,298.183 190.137 C 298.647 190.172,298.817 190.078,298.567 189.924 C 298.322 189.772,300.609 189.648,303.651 189.648 C 314.119 189.648,322.869 186.067,330.645 178.600 C 331.924 177.372,333.154 176.426,333.380 176.497 C 333.605 176.569,333.664 176.503,333.512 176.350 C 333.359 176.198,333.997 174.997,334.930 173.681 C 341.856 163.910,343.448 151.565,339.284 139.900 C 338.950 138.964,338.791 138.014,338.930 137.789 C 339.069 137.564,339.009 137.487,338.797 137.618 C 338.309 137.919,337.004 135.252,337.359 134.678 C 337.511 134.431,337.440 134.366,337.186 134.523 C 336.936 134.678,336.507 134.317,336.173 133.671 C 335.854 133.055,334.891 131.662,334.031 130.575 C 333.172 129.488,332.590 128.448,332.739 128.264 C 332.887 128.080,332.843 128.065,332.642 128.231 C 332.163 128.624,329.256 125.783,329.571 125.229 C 329.704 124.996,329.673 124.931,329.503 125.085 C 329.122 125.429,325.732 123.053,325.995 122.626 C 326.099 122.457,325.979 122.192,325.727 122.037 C 325.442 121.860,325.375 121.924,325.549 122.205 C 325.957 122.866,325.458 122.757,324.279 121.926 C 323.709 121.524,322.451 120.798,321.484 120.311 C 320.518 119.824,319.639 119.318,319.531 119.186 C 319.424 119.054,319.072 118.909,318.750 118.864 C 318.428 118.819,316.670 118.322,314.844 117.760 C 312.714 117.104,310.158 116.658,307.715 116.515 C 305.620 116.393,303.906 116.142,303.906 115.959 C 303.906 115.775,303.730 115.625,303.516 115.625 C 303.301 115.625,303.125 115.801,303.125 116.016 M236.914 154.435 C 235.625 154.711,232.835 155.669,230.715 156.564 C 228.594 157.459,226.719 158.105,226.549 157.999 C 226.378 157.894,226.180 157.984,226.108 158.198 C 225.991 158.546,219.699 161.221,197.656 170.293 C 194.111 171.752,186.507 174.896,180.757 177.279 C 175.008 179.663,170.086 181.560,169.820 181.495 C 169.554 181.431,169.487 181.458,169.672 181.556 C 169.856 181.654,168.076 182.561,165.716 183.571 C 158.833 186.519,156.588 188.556,153.337 194.808 C 151.103 199.106,151.519 198.863,134.375 205.872 C 128.037 208.463,122.324 210.823,121.680 211.117 C 116.808 213.338,109.705 216.025,109.326 215.790 C 109.057 215.624,108.967 215.671,109.110 215.904 C 109.252 216.133,108.075 216.811,106.339 217.500 C 104.679 218.159,102.291 219.155,101.033 219.714 C 99.238 220.511,98.626 220.631,98.192 220.271 C 97.751 219.905,97.684 219.930,97.861 220.392 C 98.125 221.078,95.021 222.429,94.043 222.054 C 93.710 221.926,93.324 222.007,93.183 222.235 C 93.022 222.495,93.187 222.554,93.632 222.394 C 94.019 222.255,94.242 222.248,94.128 222.379 C 93.892 222.649,89.941 224.328,75.977 230.094 C 70.605 232.312,65.684 234.485,65.039 234.924 C 63.201 236.177,60.576 238.744,59.709 240.139 C 59.274 240.839,58.795 241.335,58.644 241.242 C 58.494 241.149,58.354 241.368,58.333 241.728 C 58.313 242.088,57.905 243.438,57.428 244.727 C 52.479 258.079,63.533 272.376,77.203 270.304 C 78.779 270.065,80.290 269.998,80.562 270.154 C 80.833 270.310,80.920 270.289,80.754 270.107 C 80.324 269.634,84.755 267.919,85.718 268.187 C 86.268 268.339,86.362 268.298,86.016 268.057 C 85.660 267.809,86.418 267.341,88.555 266.489 C 90.231 265.821,94.414 264.113,97.852 262.694 C 101.289 261.274,109.902 257.764,116.992 254.894 C 124.082 252.023,130.742 249.304,131.792 248.851 C 132.859 248.392,134.066 248.130,134.527 248.259 C 135.085 248.414,135.187 248.374,134.844 248.135 C 134.488 247.887,135.246 247.420,137.383 246.569 C 141.472 244.942,154.153 239.783,164.453 235.557 C 190.018 225.069,196.155 222.648,196.554 222.895 C 196.797 223.045,196.893 223.002,196.768 222.800 C 196.643 222.598,198.330 221.701,200.517 220.807 C 204.138 219.326,211.309 216.383,231.627 208.040 C 239.968 204.615,239.526 204.703,240.168 206.348 C 241.976 210.980,244.077 217.699,243.894 218.268 C 243.710 218.841,243.741 218.855,244.098 218.359 C 244.472 217.839,244.521 217.839,244.531 218.359 C 244.537 218.682,244.655 219.368,244.793 219.885 C 244.985 220.600,244.922 220.749,244.532 220.509 C 244.190 220.297,244.114 220.344,244.303 220.649 C 244.458 220.901,244.734 221.015,244.916 220.902 C 245.368 220.623,247.394 226.819,247.039 227.395 C 246.847 227.704,246.924 227.750,247.272 227.535 C 247.647 227.303,247.721 227.394,247.540 227.866 C 247.401 228.226,247.479 228.516,247.714 228.516 C 247.947 228.516,248.046 228.867,247.934 229.297 C 247.821 229.727,247.888 229.981,248.083 229.860 C 248.436 229.642,248.595 230.352,248.524 231.836 C 248.501 232.333,248.569 232.416,248.712 232.064 C 249.039 231.257,253.958 245.685,253.687 246.658 C 253.529 247.230,253.570 247.309,253.829 246.936 C 254.107 246.534,254.252 246.641,254.439 247.388 C 254.574 247.925,254.789 248.689,254.918 249.085 C 255.112 249.682,255.080 249.705,254.730 249.219 C 254.366 248.712,254.308 248.725,254.303 249.316 C 254.300 249.692,254.546 250.000,254.851 250.000 C 255.510 250.000,256.830 253.675,256.413 254.348 C 256.250 254.612,256.297 254.705,256.522 254.565 C 257.002 254.269,258.016 257.167,257.643 257.771 C 257.496 258.009,257.556 258.203,257.777 258.203 C 257.998 258.203,258.066 258.496,257.929 258.853 C 257.771 259.265,257.834 259.408,258.101 259.243 C 258.575 258.950,260.280 263.546,259.916 264.136 C 259.793 264.335,259.643 264.940,259.584 265.479 C 259.462 266.595,259.999 266.231,260.235 265.039 C 260.335 264.533,260.705 265.190,261.285 266.907 C 262.160 269.492,265.452 275.000,266.122 275.000 C 266.307 275.000,267.051 275.452,267.776 276.005 C 269.512 277.329,272.518 278.447,275.188 278.760 C 276.374 278.900,277.344 279.121,277.343 279.253 C 277.343 279.385,283.539 279.401,291.113 279.289 L 304.883 279.087 307.391 278.038 C 308.771 277.462,310.072 277.097,310.284 277.227 C 310.495 277.358,310.559 277.289,310.427 277.076 C 310.180 276.676,312.463 274.743,312.988 274.908 C 313.149 274.959,313.241 274.868,313.191 274.707 C 313.141 274.546,313.536 273.535,314.067 272.461 C 315.092 270.391,315.452 265.010,314.704 262.939 C 314.450 262.234,314.487 262.084,314.862 262.316 C 315.192 262.520,315.258 262.463,315.060 262.144 C 314.898 261.881,314.665 261.767,314.543 261.889 C 314.421 262.012,313.891 261.392,313.366 260.512 C 312.842 259.632,311.634 258.418,310.682 257.814 C 309.730 257.211,309.091 256.641,309.261 256.547 C 309.431 256.454,309.349 256.432,309.079 256.498 C 308.808 256.565,308.105 256.423,307.516 256.184 C 306.918 255.941,302.677 255.644,297.908 255.511 L 289.371 255.273 285.130 242.394 C 282.474 234.331,280.958 229.145,281.075 228.527 C 281.209 227.821,281.174 227.737,280.954 228.234 C 280.552 229.142,277.609 220.361,277.958 219.292 C 278.123 218.787,278.086 218.711,277.842 219.049 C 277.387 219.679,274.390 210.436,274.823 209.737 C 274.996 209.456,274.960 209.354,274.736 209.492 C 274.242 209.797,268.197 191.595,268.584 190.968 C 268.746 190.707,268.705 190.607,268.490 190.740 C 268.018 191.031,266.260 185.710,266.566 184.913 C 266.688 184.595,266.624 184.436,266.423 184.560 C 265.988 184.829,265.158 182.081,265.505 181.519 C 265.637 181.305,265.569 181.239,265.353 181.372 C 264.972 181.608,262.374 173.994,262.346 172.559 C 262.339 172.183,262.222 171.875,262.088 171.875 C 261.953 171.875,261.622 171.128,261.352 170.215 C 258.167 159.435,247.059 152.263,236.914 154.435 M225.000 157.008 C 225.000 157.425,225.132 157.848,225.293 157.947 C 225.454 158.047,225.586 157.706,225.586 157.189 C 225.586 156.673,225.454 156.250,225.293 156.250 C 225.132 156.250,225.000 156.591,225.000 157.008 M289.923 253.849 C 289.510 254.111,289.513 254.251,289.939 254.604 C 290.344 254.940,290.475 254.867,290.519 254.277 C 290.584 253.409,290.600 253.420,289.923 253.849 M256.606 256.055 C 256.226 257.748,256.383 258.628,256.961 258.050 C 257.430 257.581,257.465 257.265,257.125 256.560 C 256.888 256.067,256.654 255.840,256.606 256.055 " fill="#FFAB19" fill-rule="evenodd" stroke="#6c2c95" stroke-width="6"></path></g></svg>