<svg id="svg" xmlns="http://www.w3.org/2000/svg" xmlns:xlink="http://www.w3.org/1999/xlink" width="400" height="400" viewBox="0, 0, 400,400"><g id="svgg"><path id="path0" d="M339.844 9.615 C 307.774 28.894,289.187 41.352,237.303 78.340 C 209.682 98.031,211.914 95.943,214.466 99.703 C 215.561 101.317,216.839 104.154,217.306 106.006 C 218.337 110.102,213.674 111.980,246.952 94.068 C 314.497 57.713,370.064 24.336,371.371 19.336 C 371.921 17.234,370.083 13.328,365.029 5.859 C 359.540 -2.251,359.598 -2.260,339.844 9.615 M37.218 1.967 C -6.649 13.089,-7.175 75.735,36.503 87.054 C 66.789 94.901,96.371 67.798,90.619 37.471 C 89.614 32.167,90.727 32.513,79.174 33.904 C 68.465 35.193,45.910 36.752,39.453 36.649 C 36.848 36.608,39.582 35.979,47.656 34.761 C 114.511 24.683,147.946 4.361,86.975 10.863 L 76.685 11.961 74.176 9.849 C 65.521 2.567,48.864 -0.985,37.218 1.967 M373.504 58.673 C 357.040 61.846,353.723 85.360,368.644 93.130 C 382.189 100.184,396.922 90.616,395.953 75.396 C 395.225 63.970,385.112 56.435,373.504 58.673 M59.300 94.404 C 31.831 103.491,25.517 133.036,40.325 183.203 C 49.536 214.407,70.890 250.563,85.082 258.984 C 89.874 261.828,89.837 258.311,85.417 290.839 L 81.725 318.006 49.651 336.542 C 15.477 356.293,12.181 358.630,8.815 365.510 C -0.837 385.238,20.869 407.463,40.774 398.233 C 50.315 393.810,118.510 353.640,121.634 350.603 C 127.664 344.743,127.967 343.401,134.850 292.063 L 137.014 275.923 144.484 282.035 C 175.624 307.512,199.677 338.163,218.360 376.172 C 228.086 395.959,232.574 399.975,244.978 399.992 C 266.465 400.022,275.251 381.866,264.819 358.993 C 238.843 302.040,187.699 244.907,138.622 218.019 C 130.703 213.681,119.816 191.877,110.122 160.938 C 108.304 155.137,106.685 150.039,106.525 149.609 C 106.335 149.101,113.674 148.814,127.530 148.789 C 150.208 148.748,156.880 148.002,172.461 143.768 C 178.118 142.230,180.887 140.625,177.882 140.625 C 177.318 140.625,176.042 139.866,175.046 138.938 L 173.235 137.250 162.203 138.920 C 127.898 144.114,69.713 145.541,60.387 141.416 C 48.104 135.985,44.739 121.822,53.394 111.989 C 58.576 106.102,60.674 105.511,76.563 105.456 L 90.234 105.409 86.150 101.599 C 77.940 93.939,68.418 91.388,59.300 94.404 M186.328 97.665 C 164.116 105.354,135.635 108.585,90.014 108.591 C 60.402 108.594,59.979 108.655,55.735 113.488 C 48.651 121.556,50.969 133.483,60.552 138.281 L 64.453 140.234 93.359 140.222 C 144.434 140.199,186.587 134.217,206.250 124.201 C 217.780 118.328,217.685 101.966,206.086 96.018 C 201.687 93.762,196.308 94.210,186.328 97.665 M205.469 127.702 C 204.395 128.259,200.395 129.723,196.581 130.957 C 192.718 132.206,189.465 133.719,189.236 134.373 C 189.010 135.019,188.295 136.164,187.646 136.919 C 186.998 137.673,186.654 138.477,186.882 138.705 C 187.820 139.643,205.102 131.622,206.955 129.389 C 208.511 127.513,207.671 126.559,205.469 127.702 M180.078 135.496 C 176.455 136.363,176.296 136.498,177.878 137.356 C 180.384 138.714,181.690 138.505,184.136 136.353 C 186.587 134.196,186.012 134.075,180.078 135.496 " fill="#FFAB19" fill-rule="evenodd" stroke="#6c2c95" stroke-width="6"></path></g></svg>