<svg id="svg" xmlns="http://www.w3.org/2000/svg" xmlns:xlink="http://www.w3.org/1999/xlink" width="400" height="400" viewBox="0, 0, 400,400"><g id="svgg"><path id="path0" d="M249.238 30.159 C 225.339 36.581,216.773 67.867,234.056 85.610 C 253.554 105.628,286.785 95.301,291.454 67.773 C 295.499 43.920,272.913 23.796,249.238 30.159 M189.801 88.599 C 182.901 91.226,179.632 94.089,153.424 120.451 C 121.186 152.879,118.755 156.584,120.784 170.216 C 122.758 183.481,125.326 186.659,156.363 214.243 L 182.813 237.750 182.813 279.422 L 182.813 321.094 200.000 321.094 L 217.188 321.094 217.188 268.939 L 217.188 216.784 198.891 198.500 L 180.594 180.215 199.859 160.424 L 219.125 140.632 228.508 149.871 C 253.958 174.930,279.826 186.569,310.352 186.694 L 316.406 186.719 316.406 169.922 C 316.406 157.012,316.180 153.122,315.430 153.111 C 286.764 152.714,272.049 145.028,239.759 113.585 C 214.202 88.697,213.142 88.001,200.391 87.716 C 195.310 87.602,191.607 87.911,189.801 88.599 M68.469 205.109 C 3.050 217.426,-22.953 297.518,22.990 345.186 C 72.606 396.664,158.446 367.092,166.473 295.756 C 172.560 241.656,122.124 195.007,68.469 205.109 M300.173 205.539 C 235.584 219.102,210.717 298.547,256.402 345.371 C 309.047 399.327,400.000 362.672,400.000 287.500 C 400.000 234.582,351.499 194.762,300.173 205.539 M95.150 230.902 C 148.425 241.651,157.848 315.350,108.984 339.095 C 69.885 358.096,25.781 330.746,25.781 287.500 C 25.781 250.508,58.800 223.568,95.150 230.902 M333.203 232.029 C 394.589 251.323,383.960 341.590,319.890 345.092 C 271.138 347.756,241.595 293.467,269.995 253.405 C 283.566 234.259,310.895 225.017,333.203 232.029 " fill="#FFAB19" fill-rule="evenodd" stroke="#6c2c95" stroke-width="6"></path></g></svg>