<svg id="svg" xmlns="http://www.w3.org/2000/svg" xmlns:xlink="http://www.w3.org/1999/xlink" width="400" height="400" viewBox="0, 0, 400,400"><g id="svgg"><path id="path0" d="M153.077 58.735 C 151.385 59.680,149.772 60.638,149.492 60.863 C 149.213 61.088,150.121 63.005,151.509 65.124 C 153.299 67.856,153.734 70.570,153.005 74.456 C 151.316 83.459,166.708 108.116,187.364 129.499 L 198.769 141.306 199.162 184.549 L 199.555 227.793 210.162 239.090 C 223.250 253.030,222.825 252.989,221.912 240.229 C 221.194 230.194,221.330 229.644,224.742 228.752 C 226.714 228.236,228.392 227.960,228.472 228.138 C 228.552 228.316,231.205 236.416,234.368 246.138 C 243.368 273.799,275.001 333.340,283.610 338.823 C 286.480 340.650,294.872 340.163,296.611 338.068 C 301.349 332.360,300.297 328.768,288.391 310.000 C 268.608 278.816,254.393 247.579,248.152 221.573 C 245.306 209.715,245.373 209.768,237.455 213.077 C 226.918 217.480,218.093 215.955,214.558 209.121 C 209.375 199.098,214.736 191.776,231.923 185.405 L 243.077 181.269 243.118 174.866 L 243.160 168.462 247.692 173.846 C 254.142 181.509,254.006 181.677,236.017 188.285 C 216.105 195.600,210.125 205.499,222.275 211.034 C 231.006 215.013,278.798 195.164,279.726 187.174 C 280.576 179.844,250.775 142.048,242.460 139.912 C 227.256 136.006,220.974 133.150,213.430 126.715 C 197.757 113.345,182.469 93.702,171.625 72.999 C 163.800 58.060,159.797 54.982,153.077 58.735 M137.486 64.254 C 131.065 68.413,100.012 116.430,100.936 120.769 C 103.078 130.821,111.732 145.519,121.219 155.221 L 130.900 165.120 128.527 174.581 C 125.584 186.313,125.371 195.997,128.077 195.017 C 129.135 194.634,136.577 192.369,144.615 189.984 C 152.654 187.599,159.999 184.723,160.939 183.593 C 163.468 180.551,164.894 181.095,164.338 184.889 C 163.936 187.631,161.606 188.908,151.538 191.906 C 144.769 193.922,133.534 197.278,126.572 199.364 C 113.303 203.338,109.693 206.493,111.587 212.460 C 113.762 219.313,117.639 219.052,148.462 209.973 C 186.107 198.885,184.353 200.747,179.551 176.980 C 174.899 153.960,175.239 154.308,154.028 150.865 C 134.647 147.719,133.304 146.920,124.380 133.223 C 116.422 121.008,116.325 121.387,133.842 96.482 C 142.301 84.455,149.224 73.097,149.226 71.241 C 149.233 65.997,141.708 61.519,137.486 64.254 M217.018 90.503 C 202.964 98.041,202.978 118.755,217.042 126.513 C 233.726 135.716,253.424 117.317,245.086 100.319 C 239.550 89.035,227.569 84.845,217.018 90.503 M130.881 104.054 C 126.119 110.108,128.490 120.000,134.703 120.000 C 136.068 120.000,136.923 121.540,136.923 123.998 C 136.923 140.142,155.782 148.603,166.544 137.289 C 177.454 125.818,169.964 107.716,154.301 107.698 C 151.099 107.694,148.022 106.344,145.524 103.846 C 140.500 98.822,134.934 98.901,130.881 104.054 M150.867 213.233 C 127.467 220.340,126.223 221.106,126.163 228.462 C 126.106 235.566,119.235 264.133,114.700 276.127 C 110.890 286.203,110.803 286.989,113.304 288.818 C 116.523 291.172,131.584 296.923,134.529 296.923 C 136.631 296.923,137.228 299.900,139.318 320.769 C 140.717 334.742,142.592 339.426,147.620 341.508 C 157.853 345.747,162.230 338.597,160.049 321.204 C 157.367 299.816,157.578 298.462,163.594 298.462 C 168.380 298.462,168.988 299.065,172.576 307.382 C 186.474 339.592,200.265 351.049,207.432 336.340 C 209.328 332.449,209.029 331.374,203.393 321.838 C 196.406 310.015,189.229 296.048,189.234 294.282 C 189.236 293.619,193.042 291.090,197.690 288.661 C 207.948 283.301,218.623 274.129,223.173 266.768 L 226.541 261.318 208.992 243.351 C 199.341 233.470,187.521 221.058,182.726 215.769 C 177.931 210.481,173.799 206.229,173.543 206.321 C 173.287 206.413,163.082 209.524,150.867 213.233 M221.115 275.843 C 219.614 278.132,215.586 281.859,212.164 284.124 C 205.954 288.234,205.943 288.259,206.906 296.044 C 212.016 337.372,217.721 348.862,228.944 340.424 C 234.034 336.598,234.069 334.156,229.434 306.154 C 227.544 294.731,225.512 282.301,224.920 278.532 L 223.842 271.680 221.115 275.843 " fill="#FFAB19" fill-rule="evenodd" stroke="#6c2c95" stroke-width="6"></path></g></svg>