<svg id="svg" xmlns="http://www.w3.org/2000/svg" xmlns:xlink="http://www.w3.org/1999/xlink" width="400" height="400" viewBox="0, 0, 400,400"><g id="svgg"><path id="path0" d="M377.734 85.488 C 376.016 86.043,366.699 90.519,357.031 95.435 C 339.904 104.144,333.465 106.822,285.938 125.007 C 206.824 155.277,188.332 156.723,130.710 137.139 C 89.042 122.977,78.897 128.885,72.645 170.954 C 66.004 215.643,57.735 246.939,43.193 282.422 C 34.478 303.687,35.780 311.367,48.698 314.901 C 59.036 317.729,60.770 315.144,79.923 268.359 C 101.526 215.588,103.650 210.737,106.726 207.143 L 109.497 203.906 119.397 203.904 C 129.445 203.902,155.443 205.149,161.544 205.926 L 164.884 206.352 164.448 210.012 C 164.208 212.025,162.072 229.316,159.700 248.438 C 151.179 317.137,149.467 314.306,198.243 312.170 C 213.604 311.498,237.949 310.575,252.344 310.120 C 289.488 308.947,293.750 307.093,293.750 292.106 C 293.750 276.035,290.068 274.965,234.516 274.896 C 204.800 274.859,196.067 274.633,196.346 273.907 C 196.545 273.389,199.614 263.843,203.167 252.694 C 215.622 213.609,218.331 207.226,225.411 200.285 C 231.665 194.152,223.827 198.029,360.938 133.255 C 397.994 115.748,400.000 114.249,400.000 104.071 C 400.000 90.596,389.377 81.730,377.734 85.488 M23.366 100.700 C -3.313 109.236,-8.732 150.121,14.692 166.151 C 37.206 181.558,66.349 164.732,66.397 136.297 C 66.438 111.911,44.654 93.890,23.366 100.700 " fill="#FFAB19" fill-rule="evenodd" stroke="#6c2c95" stroke-width="6"></path></g></svg>