<svg id="svg" xmlns="http://www.w3.org/2000/svg" xmlns:xlink="http://www.w3.org/1999/xlink" width="400" height="400" viewBox="0, 0, 400,400"><g id="svgg"><path id="path0" d="M270.313 1.115 C 238.543 9.925,227.879 48.678,250.597 72.760 C 274.992 98.620,319.255 84.566,324.391 49.330 C 328.862 18.654,299.966 -7.109,270.313 1.115 M125.880 71.225 C 117.663 74.381,107.503 90.297,79.582 143.750 C 70.972 160.233,85.553 181.362,104.796 180.289 C 118.426 179.529,121.414 176.419,138.587 145.117 L 151.768 121.094 175.518 121.094 L 199.269 121.094 198.267 122.914 C 197.716 123.916,181.107 152.920,161.357 187.368 L 125.448 250.000 79.950 250.000 C 49.269 250.000,33.104 250.286,30.312 250.878 C 5.015 256.239,2.118 291.714,26.239 300.739 C 33.055 303.289,142.811 303.240,149.775 300.684 C 156.850 298.087,161.340 292.823,171.875 274.771 C 176.816 266.304,181.043 259.376,181.266 259.376 C 182.311 259.374,226.563 294.813,226.563 295.651 C 226.563 296.176,220.162 312.398,212.340 331.701 L 198.117 366.797 198.082 374.219 C 197.971 397.725,226.224 409.375,242.300 392.450 C 246.223 388.321,246.039 388.735,266.484 337.891 C 292.319 273.643,293.595 280.659,249.803 246.153 L 223.635 225.534 228.695 216.868 C 231.479 212.103,239.390 198.599,246.275 186.860 L 258.793 165.518 266.348 177.095 C 284.853 205.454,284.389 204.890,292.145 208.455 C 297.072 210.720,305.335 211.153,310.547 209.421 C 316.577 207.416,379.835 171.727,383.042 168.521 C 398.854 152.709,388.230 125.688,365.688 124.383 C 357.904 123.933,356.023 124.710,330.795 138.796 L 311.199 149.738 297.862 129.361 L 284.524 108.984 276.671 108.455 C 255.044 106.998,233.751 93.235,224.010 74.417 L 221.484 69.537 175.781 69.575 C 131.531 69.611,129.945 69.664,125.880 71.225 " fill="#FFAB19" fill-rule="evenodd" stroke="#6c2c95" stroke-width="6"></path></g></svg>