<svg id="svg" xmlns="http://www.w3.org/2000/svg" xmlns:xlink="http://www.w3.org/1999/xlink" width="400" height="400" viewBox="0, 0, 400,400"><g id="svgg"><path id="path0" d="M252.557 1.467 C 224.101 11.406,222.130 51.192,249.475 63.711 C 278.268 76.893,307.438 46.425,293.304 17.934 C 286.295 3.805,267.552 -3.770,252.557 1.467 M200.269 62.574 C 192.708 63.973,183.594 72.304,183.594 77.815 C 183.594 78.109,187.307 78.160,191.845 77.928 C 196.384 77.697,199.987 77.599,199.853 77.712 C 199.719 77.824,185.940 82.043,169.234 87.087 C 131.457 98.493,131.794 98.347,128.462 104.791 C 124.845 111.785,107.665 172.420,107.965 177.132 C 108.927 192.232,128.010 197.905,137.586 185.938 C 139.272 183.831,141.734 176.693,148.314 154.841 C 153.012 139.242,156.982 126.369,157.138 126.235 C 157.294 126.101,169.336 122.399,183.898 118.008 C 198.460 113.616,210.941 109.837,211.632 109.608 C 212.324 109.379,203.423 115.027,191.851 122.159 C 180.280 129.291,170.512 135.425,170.146 135.791 C 169.780 136.158,166.155 147.464,162.091 160.916 C 153.594 189.043,152.279 192.259,146.990 197.854 L 143.115 201.953 159.837 226.172 C 169.034 239.492,176.559 250.638,176.560 250.941 C 176.562 251.243,166.162 263.724,153.450 278.675 C 125.686 311.331,124.931 312.599,127.322 322.567 C 130.298 334.971,145.365 341.442,156.303 335.012 C 160.752 332.396,217.375 266.132,220.107 260.343 C 223.890 252.329,222.353 246.265,213.504 234.289 C 210.522 230.254,202.871 219.922,196.502 211.328 C 190.133 202.734,185.589 196.264,186.406 196.950 C 187.223 197.636,196.855 205.585,207.813 214.615 C 229.508 232.494,233.665 236.517,236.164 242.050 C 238.505 247.235,238.439 255.966,236.017 261.460 L 234.237 265.497 244.104 300.913 C 254.327 337.612,255.324 340.259,260.321 343.970 C 273.408 353.688,291.676 344.711,291.766 328.516 C 291.803 322.016,266.358 229.287,262.644 222.384 C 260.114 217.682,257.996 216.230,239.648 206.613 C 231.592 202.390,225.000 198.625,225.000 198.245 C 225.000 196.998,244.762 152.314,245.145 152.697 C 245.350 152.902,248.401 158.268,251.925 164.621 C 259.761 178.748,261.870 180.640,270.312 181.117 L 275.713 181.422 307.193 168.759 C 324.506 161.794,339.815 155.233,341.212 154.179 C 350.184 147.411,348.803 132.786,338.714 127.721 C 332.245 124.474,330.472 124.832,305.357 134.458 C 292.905 139.230,282.598 143.010,282.450 142.856 C 282.303 142.703,277.841 135.547,272.534 126.953 L 262.886 111.328 264.269 107.422 C 267.028 99.625,264.246 89.427,258.074 84.720 C 255.776 82.967,218.943 66.272,211.719 63.709 C 207.667 62.271,203.914 61.899,200.269 62.574 M68.750 277.342 C -3.434 282.744,-12.321 312.112,48.649 343.769 C 141.052 391.748,324.828 416.619,379.082 388.489 C 404.282 375.423,391.957 353.093,347.266 330.845 C 336.588 325.530,307.026 313.158,306.364 313.727 C 306.211 313.858,306.694 317.109,307.437 320.951 C 313.712 353.425,277.514 376.258,250.861 356.638 C 241.770 349.945,240.176 346.521,231.227 314.453 C 224.144 289.073,224.934 290.882,220.633 290.195 L 217.438 289.684 195.703 315.270 C 183.749 329.342,172.568 342.122,170.857 343.670 C 146.808 365.424,111.311 349.631,111.335 317.188 C 111.343 305.610,112.999 301.966,124.484 288.258 C 130.812 280.705,132.393 278.370,131.519 277.869 C 129.925 276.956,79.566 276.533,68.750 277.342 " fill="#FFAB19" fill-rule="evenodd" stroke="#6c2c95" stroke-width="6"></path></g></svg>