<svg id="svg" xmlns="http://www.w3.org/2000/svg" xmlns:xlink="http://www.w3.org/1999/xlink" width="400" height="400" viewBox="0, 0, 400,400"><g id="svgg"><path id="path0" d="M186.078 1.520 C 139.925 12.855,127.494 72.110,164.844 102.739 C 172.347 108.892,172.631 109.511,172.645 119.765 C 172.663 133.453,172.509 133.587,156.772 133.609 C 138.584 133.635,131.321 135.473,124.285 141.830 C 122.491 143.451,103.576 168.988,82.251 198.580 C 37.616 260.520,42.300 255.558,27.791 256.265 C 9.117 257.175,0.000 265.632,0.000 282.046 C -0.000 299.203,9.687 306.489,33.040 306.897 L 47.721 307.154 44.404 309.557 C 11.703 333.246,19.963 384.657,58.594 397.872 L 63.672 399.609 174.609 399.799 C 283.553 399.986,285.505 399.963,283.203 398.517 C 271.784 391.343,119.427 307.828,114.613 306.103 C 106.722 303.276,95.280 300.970,85.878 300.312 L 78.396 299.788 80.296 297.746 C 81.341 296.622,92.794 279.915,105.747 260.617 L 129.297 225.532 129.517 256.321 L 129.738 287.109 164.734 306.445 C 183.982 317.080,200.117 325.781,200.589 325.781 C 201.061 325.781,215.975 317.061,233.732 306.403 L 266.016 287.024 266.406 256.528 L 266.797 226.031 289.453 259.290 C 301.914 277.583,313.230 294.025,314.600 295.827 L 317.090 299.105 311.865 299.630 C 297.614 301.064,283.059 305.059,270.952 310.861 C 263.276 314.539,224.848 337.545,224.494 338.674 C 224.359 339.103,248.236 352.751,277.554 369.003 L 330.859 398.553 334.974 397.655 C 374.851 388.954,384.585 332.325,350.391 307.969 L 348.047 306.300 362.839 306.275 C 389.857 306.230,399.980 299.184,399.996 280.413 C 400.009 264.135,390.484 256.129,370.313 255.466 C 353.443 254.911,359.088 260.620,313.506 198.017 C 264.537 130.763,267.742 133.617,241.160 133.600 C 228.063 133.591,227.344 132.872,227.344 119.780 C 227.344 110.417,228.286 108.201,234.208 103.644 C 283.779 65.500,246.618 -13.349,186.078 1.520 " fill="#FFAB19" fill-rule="evenodd" stroke="#6c2c95" stroke-width="6"></path></g></svg>