<svg id="svg" xmlns="http://www.w3.org/2000/svg" xmlns:xlink="http://www.w3.org/1999/xlink" width="400" height="400" viewBox="0, 0, 400,400"><g id="svgg"><path id="path0" d="M212.025 40.128 C 199.885 41.402,194.989 59.768,205.258 65.515 C 205.948 65.901,205.941 65.960,205.101 66.846 C 204.618 67.356,203.317 68.818,202.209 70.095 C 201.102 71.371,199.229 73.418,198.047 74.642 C 196.865 75.866,195.195 77.717,194.336 78.754 C 193.477 79.792,192.023 81.525,191.105 82.606 C 190.188 83.686,188.957 85.152,188.371 85.864 C 187.785 86.576,187.129 87.367,186.914 87.622 C 186.699 87.878,185.826 88.966,184.974 90.040 C 184.122 91.114,183.323 92.080,183.198 92.188 C 183.072 92.295,182.548 92.998,182.031 93.750 C 181.514 94.502,180.776 95.401,180.390 95.749 C 180.003 96.096,179.688 96.537,179.688 96.728 C 179.688 96.919,178.903 98.033,177.943 99.202 C 176.984 100.372,176.270 101.400,176.357 101.487 C 176.444 101.574,176.066 102.094,175.517 102.643 C 174.968 103.192,173.896 104.624,173.133 105.824 C 172.371 107.025,171.644 108.096,171.518 108.203 C 170.986 108.657,168.750 112.074,168.750 112.434 C 168.750 112.649,168.598 112.884,168.412 112.956 C 167.978 113.123,164.453 118.633,164.453 119.145 C 164.453 119.357,164.277 119.531,164.063 119.531 C 163.848 119.531,163.672 119.795,163.672 120.117 C 163.672 120.439,163.517 120.703,163.327 120.703 C 163.137 120.703,162.878 121.011,162.752 121.387 C 162.519 122.076,162.108 122.808,159.948 126.367 C 154.895 134.694,154.054 138.732,155.251 148.926 C 155.371 149.946,155.543 151.528,155.634 152.441 C 156.187 157.996,156.327 159.337,156.502 160.742 C 156.958 164.394,157.041 165.189,157.269 168.080 L 157.508 171.121 155.623 173.939 C 154.586 175.489,153.599 176.934,153.428 177.148 C 149.872 181.627,149.433 182.702,150.157 185.156 C 151.526 189.798,153.209 195.329,153.544 196.289 C 153.768 196.934,154.021 197.776,154.105 198.161 C 154.262 198.880,154.922 200.999,155.528 202.734 C 155.716 203.271,155.941 204.063,156.029 204.492 C 156.257 205.613,157.226 209.132,158.179 212.305 C 159.424 216.448,160.593 220.787,160.758 221.875 C 160.807 222.197,161.306 223.867,161.868 225.586 C 162.429 227.305,163.085 229.414,163.325 230.273 C 163.566 231.133,163.962 232.363,164.205 233.008 C 164.449 233.652,164.659 234.355,164.671 234.570 C 164.684 234.785,165.104 236.279,165.606 237.891 C 166.108 239.502,166.856 241.963,167.270 243.359 C 167.684 244.756,168.263 246.514,168.558 247.266 C 168.852 248.018,169.271 249.248,169.489 250.000 C 169.707 250.752,170.143 252.233,170.459 253.291 L 171.032 255.215 168.472 260.322 C 167.064 263.131,165.321 266.542,164.599 267.901 C 163.877 269.260,163.214 270.768,163.126 271.253 C 163.038 271.737,161.875 274.668,160.541 277.766 C 157.688 284.393,153.163 295.379,151.463 299.805 L 150.263 302.930 150.123 315.039 C 149.657 355.567,149.793 356.767,155.290 360.642 C 156.248 361.317,157.031 361.989,157.031 362.135 C 157.031 362.717,165.842 362.722,166.588 362.141 C 166.810 361.968,167.435 361.721,167.977 361.592 C 170.836 360.913,174.371 357.281,175.033 354.345 C 175.201 353.601,175.167 348.408,174.958 342.805 C 174.163 321.516,174.173 309.866,174.987 307.650 C 175.389 306.558,176.362 303.906,177.151 301.758 C 177.940 299.609,178.763 297.236,178.980 296.484 C 179.197 295.732,179.692 294.326,180.081 293.359 C 181.809 289.065,183.768 284.413,184.621 282.579 C 185.130 281.485,185.547 280.377,185.547 280.119 C 185.547 278.439,186.743 277.344,188.584 277.336 C 196.829 277.302,204.426 273.179,208.824 266.351 C 209.557 265.214,210.157 264.102,210.159 263.880 C 210.160 263.658,210.392 263.035,210.674 262.495 C 211.748 260.436,212.221 255.463,212.263 245.796 C 212.311 234.781,212.463 235.597,208.178 223.998 C 206.903 220.547,205.859 217.461,205.859 217.139 C 205.859 216.818,205.601 216.214,205.286 215.797 C 204.970 215.380,204.707 214.654,204.700 214.183 C 204.693 213.712,204.525 213.227,204.327 213.105 C 204.129 212.982,203.845 212.312,203.696 211.617 C 203.547 210.921,203.201 209.912,202.927 209.375 C 202.652 208.838,202.158 207.695,201.827 206.836 C 200.491 203.361,197.881 196.193,197.419 194.727 C 197.148 193.867,196.549 192.197,196.088 191.016 C 194.982 188.178,194.592 186.824,194.380 185.075 C 194.283 184.278,194.076 183.223,193.919 182.731 C 193.763 182.239,193.605 181.572,193.569 181.250 C 193.532 180.928,193.391 180.225,193.255 179.688 C 192.713 177.545,191.701 173.197,191.574 172.461 C 191.439 171.675,190.660 168.111,190.465 167.383 C 190.407 167.168,190.229 166.289,190.069 165.430 C 189.909 164.570,189.449 162.461,189.046 160.742 C 187.446 153.911,185.427 145.037,185.150 143.617 C 184.800 141.819,185.044 140.713,186.023 139.662 C 186.424 139.232,187.569 137.558,188.567 135.944 C 189.566 134.329,190.499 132.920,190.641 132.813 C 190.783 132.705,191.113 132.210,191.376 131.712 C 191.966 130.592,198.371 121.569,199.313 120.532 C 199.691 120.115,200.000 119.659,200.000 119.517 C 200.000 119.376,200.308 118.905,200.684 118.471 C 201.060 118.037,201.807 117.098,202.344 116.384 C 206.406 110.983,211.278 104.956,213.672 102.369 C 214.424 101.556,215.303 100.540,215.625 100.110 C 215.947 99.680,216.914 98.483,217.773 97.449 C 218.633 96.416,220.001 94.765,220.814 93.781 C 224.287 89.579,224.873 88.890,226.172 87.487 C 226.924 86.674,228.621 84.806,229.943 83.337 C 231.265 81.867,233.522 79.463,234.959 77.996 C 240.454 72.383,241.784 65.658,238.492 60.135 C 237.097 57.793,222.646 42.978,221.751 42.971 C 221.576 42.970,220.829 42.508,220.091 41.946 C 219.354 41.383,218.750 41.024,218.750 41.147 C 218.750 41.271,218.011 41.111,217.107 40.792 C 216.204 40.473,215.243 40.298,214.971 40.402 C 214.700 40.506,214.374 40.423,214.247 40.217 C 214.120 40.012,213.895 39.873,213.746 39.909 C 213.598 39.946,212.823 40.044,212.025 40.128 M244.141 46.811 L 243.164 47.106 243.164 204.900 L 243.164 362.695 247.038 362.808 C 249.874 362.890,250.998 362.786,251.231 362.417 C 251.769 361.570,251.646 47.363,251.108 47.031 C 250.452 46.626,245.294 46.463,244.141 46.811 M201.758 280.656 C 200.469 280.940,198.485 281.541,197.349 281.992 C 196.213 282.443,194.685 282.813,193.954 282.813 C 193.223 282.813,192.500 283.014,192.348 283.260 C 192.155 283.572,192.413 283.644,193.204 283.499 C 194.176 283.320,194.233 283.354,193.609 283.735 C 171.026 297.546,176.030 330.970,201.485 336.338 C 203.354 336.732,204.586 337.067,204.222 337.082 C 203.859 337.097,203.462 337.272,203.339 337.470 C 203.205 337.686,203.624 337.701,204.390 337.506 C 205.091 337.327,207.246 337.069,209.180 336.932 C 236.173 335.021,244.988 299.721,222.240 284.633 C 216.448 280.792,208.315 279.213,201.758 280.656 " fill="#FFAB19" fill-rule="evenodd" stroke="#6c2c95" stroke-width="6"></path></g></svg>