<svg id="svg" xmlns="http://www.w3.org/2000/svg" xmlns:xlink="http://www.w3.org/1999/xlink" width="400" height="400" viewBox="0, 0, 400,400"><g id="svgg"><path id="path0" d="M211.815 16.654 C 183.350 31.681,182.921 75.499,211.083 91.450 C 226.595 100.236,251.613 96.518,263.266 83.695 C 295.221 48.529,253.762 -5.492,211.815 16.654 M124.039 84.488 C 114.840 89.293,114.061 93.808,114.029 142.500 C 113.990 203.958,111.227 201.417,162.220 186.814 C 179.862 181.762,194.579 177.937,194.925 178.314 C 195.271 178.692,196.206 191.825,197.002 207.500 L 198.450 236.000 152.725 236.033 C 75.784 236.088,72.568 241.235,94.949 328.507 C 106.503 373.563,108.495 379.483,113.449 383.490 C 125.354 393.119,145.283 386.522,148.997 371.723 C 149.933 367.996,134.638 295.175,128.812 275.615 C 127.884 272.500,132.342 272.181,184.553 271.615 L 241.303 271.000 249.808 265.368 C 264.832 255.419,265.905 250.673,265.956 193.969 C 266.026 116.470,262.545 113.577,191.389 132.000 C 170.146 137.500,152.143 142.000,151.383 142.000 C 150.622 142.000,150.000 130.907,150.000 117.349 C 150.000 86.727,141.164 75.543,124.039 84.488 M215.500 281.492 C 203.675 281.846,194.000 282.638,194.000 283.253 C 194.000 291.484,217.157 354.620,221.400 357.957 C 230.128 364.823,306.076 364.106,313.091 357.091 C 328.591 341.590,316.662 328.262,286.000 326.824 C 250.413 325.154,252.442 326.621,244.044 296.500 C 241.514 287.425,238.894 280.191,238.222 280.425 C 237.550 280.658,227.325 281.139,215.500 281.492 " fill="#FFAB19" fill-rule="evenodd" stroke="#6c2c95" stroke-width="6"></path></g></svg>