<svg id="svg" xmlns="http://www.w3.org/2000/svg" xmlns:xlink="http://www.w3.org/1999/xlink" width="400" height="400" viewBox="0, 0, 400,400"><g id="svgg"><path id="path0" d="M229.555 117.987 C 207.384 121.728,191.829 138.248,181.354 169.178 C 173.054 193.684,173.570 204.781,183.281 210.642 C 186.242 212.429,186.309 212.584,198.070 245.086 C 211.615 282.521,210.880 280.852,214.335 281.992 C 218.388 283.330,222.460 281.127,223.742 276.902 C 224.023 275.979,220.561 259.474,215.645 238.297 L 207.058 201.305 208.615 193.817 C 210.704 183.768,215.070 170.890,218.172 165.625 L 220.703 161.328 220.886 164.453 C 220.987 166.172,221.952 189.551,223.031 216.406 C 225.492 277.649,225.367 276.074,228.003 279.024 C 231.704 283.166,238.161 282.735,241.497 278.125 C 243.372 275.534,249.987 132.990,248.467 127.917 C 246.767 122.241,239.257 116.705,234.038 117.279 C 233.579 117.330,231.562 117.648,229.555 117.987 M162.152 213.068 C 151.580 215.757,147.224 230.515,154.462 239.117 C 160.887 246.751,174.147 246.625,179.936 238.874 C 189.558 225.991,177.893 209.063,162.152 213.068 " fill="#FFAB19" fill-rule="evenodd" stroke="#6c2c95" stroke-width="6"></path></g></svg>